<?xml version="1.0" standalone="no"?>
<!DOCTYPE svg PUBLIC "-//W3C//DTD SVG 1.1//EN" "http://www.w3.org/Graphics/SVG/1.1/DTD/svg11.dtd" >
<svg>
<metadata>
Created by FontForge 20120731 at Thu Dec 15 08:22:15 2016
 By www-data
Copyright GeronimoFonts 2015
</metadata>
<defs>
<font id="Scorpion" horiz-adv-x="832" >
  <font-face 
    font-family="Scorpion"
    font-weight="400"
    font-stretch="normal"
    units-per-em="1024"
    panose-1="0 0 4 0 0 0 0 0 0 0"
    ascent="819"
    descent="-205"
    x-height="832"
    cap-height="832"
    bbox="0 -128 960 896"
    underline-thickness="51"
    underline-position="127"
    unicode-range="U+0020-007A"
  />
    <missing-glyph />
    <glyph glyph-name="space" unicode=" " horiz-adv-x="384" 
 />
    <glyph glyph-name="exclam" unicode="!" horiz-adv-x="256" 
d="M0 0v192h192v-192h-192zM0 256v576h192v-576h-192z" />
    <glyph glyph-name="numbersign" unicode="#" 
d="M448 352v128h-128v-128h128zM128 0v160h-128v192h128v128h-128v192h128v160h192v-160h128v160h192v-160h128v-192h-128v-128h128v-192h-128v-160h-192v160h-128v-160h-192z" />
    <glyph glyph-name="dollar" unicode="$" 
d="M288 -64v64h-160l-64 32l-32 32l-32 64v128h192v-32l32 -32h320l32 32v64l-32 32h-416l-64 32l-32 32l-32 64v256l32 64l32 32l64 32h160v64h192v-64h160l64 -32l32 -32l32 -64v-128h-192v32l-32 32h-320l-32 -32v-64l32 -32h416l64 -32l32 -32l32 -64v-256l-32 -64
l-32 -32l-64 -32h-160v-64h-192z" />
    <glyph glyph-name="ampersand" unicode="&#x26;" horiz-adv-x="896" 
d="M128 0l-64 32l-32 32l-32 64v192l32 64l32 32l-32 32l-32 64v192l32 64l32 32l64 32h512l64 -32l32 -32l32 -64v-128h-192v32l-32 32h-320l-32 -32v-64l32 -32h288v-192h-288l-32 -32v-64l32 -32h320l32 32v160h256v-192h-64v-64l-32 -64l-32 -32l-64 -32h-512z" />
    <glyph glyph-name="comma" unicode="," horiz-adv-x="256" 
d="M64 -128v128h-32l-32 32v128l32 32h128l32 -32v-256l-32 -32h-96z" />
    <glyph glyph-name="period" unicode="." horiz-adv-x="256" 
d="M32 0l-32 32v128l32 32h128l32 -32v-128l-32 -32h-128z" />
    <glyph glyph-name="zero" unicode="0" 
d="M384 192l-192 384v-352l32 -32h160zM576 192v416l-32 32h-192zM128 0l-64 32l-32 32l-32 64v576l32 64l32 32l64 32h512l64 -32l32 -32l32 -64v-576l-32 -64l-32 -32l-64 -32h-512z" />
    <glyph glyph-name="one" unicode="1" horiz-adv-x="320" 
d="M64 0v640h-64v192h256v-832h-192z" />
    <glyph glyph-name="two" unicode="2" 
d="M0 0v384l32 64l32 32l64 32h416l32 32v64l-32 32h-320l-32 -32v-32h-192v128l32 64l32 32l64 32h512l64 -32l32 -32l32 -64v-256l-32 -64l-32 -32l-64 -32h-416l-32 -32v-96h576v-192h-768z" />
    <glyph glyph-name="three" unicode="3" 
d="M0 0v192h544l32 32v64l-32 32h-416v192h416l32 32v64l-32 32h-544v192h640l64 -32l32 -32l32 -64v-192l-32 -64l-32 -32l32 -32l32 -64v-192l-32 -64l-32 -32l-64 -32h-640z" />
    <glyph glyph-name="four" unicode="4" 
d="M576 0v320h-448l-64 32l-32 32l-32 64v384h192v-288l32 -32h352v320h192v-832h-192z" />
    <glyph glyph-name="five" unicode="5" 
d="M128 0l-64 32l-32 32l-32 64v128h192v-32l32 -32h320l32 32v64l-32 32h-544v512h768v-192h-576v-128h448l64 -32l32 -32l32 -64v-256l-32 -64l-32 -32l-64 -32h-512z" />
    <glyph glyph-name="six" unicode="6" 
d="M544 192l32 32v64l-32 32h-352v-96l32 -32h320zM128 0l-64 32l-32 32l-32 64v576l32 64l32 32l64 32h512l64 -32l32 -32l32 -64v-128h-192v32l-32 32h-320l-32 -32v-96h448l64 -32l32 -32l32 -64v-256l-32 -64l-32 -32l-64 -32h-512z" />
    <glyph glyph-name="seven" unicode="7" 
d="M224 0l320 640h-544v192h768v-128l-352 -704h-192z" />
    <glyph glyph-name="eight" unicode="8" 
d="M544 192l32 32v64l-32 32h-320l-32 -32v-64l32 -32h320zM544 512l32 32v64l-32 32h-320l-32 -32v-64l32 -32h320zM128 0l-64 32l-32 32l-32 64v192l32 64l32 32l-32 32l-32 64v192l32 64l32 32l64 32h512l64 -32l32 -32l32 -64v-192l-32 -64l-32 -32l32 -32l32 -64v-192
l-32 -64l-32 -32l-64 -32h-512z" />
    <glyph glyph-name="nine" unicode="9" 
d="M576 512v96l-32 32h-320l-32 -32v-64l32 -32h352zM128 0l-64 32l-32 32l-32 64v128h192v-32l32 -32h320l32 32v96h-448l-64 32l-32 32l-32 64v256l32 64l32 32l64 32h512l64 -32l32 -32l32 -64v-576l-32 -64l-32 -32l-64 -32h-512z" />
    <glyph glyph-name="colon" unicode=":" horiz-adv-x="256" 
d="M32 112l-32 32v128l32 32h128l32 -32v-128l-32 -32h-128zM32 528l-32 32v128l32 32h128l32 -32v-128l-32 -32h-128z" />
    <glyph glyph-name="semicolon" unicode=";" horiz-adv-x="256" 
d="M64 -16v128h-32l-32 32v128l32 32h128l32 -32v-256l-32 -32h-96zM32 528l-32 32v128l32 32h128l32 -32v-128l-32 -32h-128z" />
    <glyph glyph-name="question" unicode="?" 
d="M288 0v192h192v-192h-192zM288 256v256h256l32 32v64l-32 32h-320l-32 -32v-32h-192v128l32 64l32 32l64 32h512l64 -32l32 -32l32 -64v-256l-32 -64l-32 -32l-64 -32h-160v-64h-192z" />
    <glyph glyph-name="A" unicode="A" 
d="M576 512v96l-32 32h-320l-32 -32v-96h384zM0 0v704l32 64l32 32l64 32h512l64 -32l32 -32l32 -64v-704h-192v320h-384v-320h-192z" />
    <glyph glyph-name="B" unicode="B" 
d="M544 192l32 32v64l-32 32h-352v-128h352zM544 512l32 32v64l-32 32h-352v-128h352zM0 0v832h640l64 -32l32 -32l32 -64v-192l-32 -64l-32 -32l32 -32l32 -64v-192l-32 -64l-32 -32l-64 -32h-640z" />
    <glyph glyph-name="C" unicode="C" 
d="M128 0l-64 32l-32 32l-32 64v576l32 64l32 32l64 32h512l64 -32l32 -32l32 -64v-128h-192v32l-32 32h-320l-32 -32v-384l32 -32h320l32 32v32h192v-128l-32 -64l-32 -32l-64 -32h-512z" />
    <glyph glyph-name="D" unicode="D" 
d="M544 192l32 32v384l-32 32h-352v-448h352zM0 0v832h640l64 -32l32 -32l32 -64v-576l-32 -64l-32 -32l-64 -32h-640z" />
    <glyph glyph-name="E" unicode="E" 
d="M128 0l-64 32l-32 32l-32 64v576l32 64l32 32l64 32h640v-192h-544l-32 -32v-96h448v-192h-448v-96l32 -32h544v-192h-640z" />
    <glyph glyph-name="F" unicode="F" 
d="M0 0v704l32 64l32 32l64 32h640v-192h-544l-32 -32v-96h448v-192h-448v-320h-192z" />
    <glyph glyph-name="G" unicode="G" 
d="M128 0l-64 32l-32 32l-32 64v576l32 64l32 32l64 32h512l64 -32l32 -32l32 -64v-128h-192v32l-32 32h-320l-32 -32v-384l32 -32h320l32 32v96h-256v192h448v-384l-32 -64l-32 -32l-64 -32h-512z" />
    <glyph glyph-name="H" unicode="H" 
d="M0 0v832h192v-320h384v320h192v-832h-192v320h-384v-320h-192z" />
    <glyph glyph-name="I" unicode="I" horiz-adv-x="256" 
d="M0 0v832h192v-832h-192z" />
    <glyph glyph-name="J" unicode="J" 
d="M128 0l-64 32l-32 32l-32 64v256h192v-160l32 -32h320l32 32v608h192v-704l-32 -64l-32 -32l-64 -32h-512z" />
    <glyph glyph-name="K" unicode="K" 
d="M0 0v832h192v-320h352l32 32v288h192v-320l-32 -64l-32 -32l32 -32l32 -64v-320h-192v288l-32 32h-352v-320h-192z" />
    <glyph glyph-name="L" unicode="L" 
d="M0 0v832h192v-640h576v-192h-768z" />
    <glyph glyph-name="M" unicode="M" horiz-adv-x="1024" 
d="M0 0v704l32 64l32 32l64 32h256l64 -32l32 -32l32 32l64 32h256l64 -32l32 -32l32 -64v-704h-192v608l-32 32h-128l-32 -32v-608h-192v608l-32 32h-128l-32 -32v-608h-192z" />
    <glyph glyph-name="N" unicode="N" 
d="M0 0v832h640l64 -32l32 -32l32 -64v-704h-192v608l-32 32h-352v-640h-192z" />
    <glyph glyph-name="O" unicode="O" 
d="M544 192l32 32v384l-32 32h-320l-32 -32v-384l32 -32h320zM128 0l-64 32l-32 32l-32 64v576l32 64l32 32l64 32h512l64 -32l32 -32l32 -64v-576l-32 -64l-32 -32l-64 -32h-512z" />
    <glyph glyph-name="P" unicode="P" 
d="M544 512l32 32v64l-32 32h-352v-128h352zM0 0v832h640l64 -32l32 -32l32 -64v-256l-32 -64l-32 -32l-64 -32h-448v-320h-192z" />
    <glyph glyph-name="Q" unicode="Q" 
d="M544 192l32 32v384l-32 32h-320l-32 -32v-384l32 -32h320zM288 -128v128h-160l-64 32l-32 32l-32 64v576l32 64l32 32l64 32h512l64 -32l32 -32l32 -64v-576l-32 -64l-32 -32l-64 -32h-160v-128h-192z" />
    <glyph glyph-name="R" unicode="R" 
d="M544 512l32 32v64l-32 32h-352v-128h352zM0 0v832h640l64 -32l32 -32l32 -64v-192l-32 -64l-32 -32l32 -32l32 -64v-320h-192v288l-32 32h-352v-320h-192z" />
    <glyph glyph-name="S" unicode="S" 
d="M128 0l-64 32l-32 32l-32 64v128h192v-32l32 -32h320l32 32v64l-32 32h-416l-64 32l-32 32l-32 64v256l32 64l32 32l64 32h512l64 -32l32 -32l32 -64v-128h-192v32l-32 32h-320l-32 -32v-64l32 -32h416l64 -32l32 -32l32 -64v-256l-32 -64l-32 -32l-64 -32h-512z" />
    <glyph glyph-name="T" unicode="T" 
d="M288 0v640h-288v192h768v-192h-288v-640h-192z" />
    <glyph glyph-name="U" unicode="U" 
d="M128 0l-64 32l-32 32l-32 64v704h192v-608l32 -32h320l32 32v608h192v-704l-32 -64l-32 -32l-64 -32h-512z" />
    <glyph glyph-name="V" unicode="V" 
d="M352 0l-352 704v128h192v-128l192 -384l192 384v128h192v-128l-352 -704h-64z" />
    <glyph glyph-name="W" unicode="W" horiz-adv-x="896" 
d="M128 0l-64 32l-32 32l-32 64v704h192v-608l32 -32h64l32 32v416h192v-416l32 -32h64l32 32v608h192v-704l-32 -64l-32 -32l-64 -32h-192l-64 32l-32 32l-32 -32l-64 -32h-192z" />
    <glyph glyph-name="X" unicode="X" 
d="M0 0v320l32 64l32 32l-32 32l-32 64v320h192v-288l32 -32h320l32 32v288h192v-320l-32 -64l-32 -32l32 -32l32 -64v-320h-192v288l-32 32h-320l-32 -32v-288h-192z" />
    <glyph glyph-name="Y" unicode="Y" 
d="M128 0l-64 32l-32 32l-32 64v128h192v-32l32 -32h320l32 32v96h-448l-64 32l-32 32l-32 64v384h192v-288l32 -32h320l32 32v288h192v-704l-32 -64l-32 -32l-64 -32h-512z" />
    <glyph glyph-name="Z" unicode="Z" 
d="M0 0v384l32 64l32 32l64 32h416l32 32v96h-576v192h768v-384l-32 -64l-32 -32l-64 -32h-416l-32 -32v-96h576v-192h-768z" />
    <glyph glyph-name="a" unicode="a" 
d="M576 512v96l-32 32h-320l-32 -32v-96h384zM0 0v704l32 64l32 32l64 32h512l64 -32l32 -32l32 -64v-704h-192v320h-384v-320h-192z" />
    <glyph glyph-name="b" unicode="b" 
d="M544 192l32 32v64l-32 32h-352v-128h352zM544 512l32 32v64l-32 32h-352v-128h352zM0 0v832h640l64 -32l32 -32l32 -64v-192l-32 -64l-32 -32l32 -32l32 -64v-192l-32 -64l-32 -32l-64 -32h-640z" />
    <glyph glyph-name="c" unicode="c" 
d="M128 0l-64 32l-32 32l-32 64v576l32 64l32 32l64 32h512l64 -32l32 -32l32 -64v-128h-192v32l-32 32h-320l-32 -32v-384l32 -32h320l32 32v32h192v-128l-32 -64l-32 -32l-64 -32h-512z" />
    <glyph glyph-name="d" unicode="d" 
d="M544 192l32 32v384l-32 32h-352v-448h352zM0 0v832h640l64 -32l32 -32l32 -64v-576l-32 -64l-32 -32l-64 -32h-640z" />
    <glyph glyph-name="e" unicode="e" 
d="M128 0l-64 32l-32 32l-32 64v576l32 64l32 32l64 32h640v-192h-544l-32 -32v-96h448v-192h-448v-96l32 -32h544v-192h-640z" />
    <glyph glyph-name="f" unicode="f" 
d="M0 0v704l32 64l32 32l64 32h640v-192h-544l-32 -32v-96h448v-192h-448v-320h-192z" />
    <glyph glyph-name="g" unicode="g" 
d="M128 0l-64 32l-32 32l-32 64v576l32 64l32 32l64 32h512l64 -32l32 -32l32 -64v-128h-192v32l-32 32h-320l-32 -32v-384l32 -32h320l32 32v96h-256v192h448v-384l-32 -64l-32 -32l-64 -32h-512z" />
    <glyph glyph-name="h" unicode="h" 
d="M0 0v832h192v-320h384v320h192v-832h-192v320h-384v-320h-192z" />
    <glyph glyph-name="i" unicode="i" horiz-adv-x="256" 
d="M0 0v832h192v-832h-192z" />
    <glyph glyph-name="j" unicode="j" 
d="M128 0l-64 32l-32 32l-32 64v256h192v-160l32 -32h320l32 32v608h192v-704l-32 -64l-32 -32l-64 -32h-512z" />
    <glyph glyph-name="k" unicode="k" 
d="M0 0v832h192v-320h352l32 32v288h192v-320l-32 -64l-32 -32l32 -32l32 -64v-320h-192v288l-32 32h-352v-320h-192z" />
    <glyph glyph-name="l" unicode="l" 
d="M0 0v832h192v-640h576v-192h-768z" />
    <glyph glyph-name="m" unicode="m" horiz-adv-x="1024" 
d="M0 0v704l32 64l32 32l64 32h256l64 -32l32 -32l32 32l64 32h256l64 -32l32 -32l32 -64v-704h-192v608l-32 32h-128l-32 -32v-608h-192v608l-32 32h-128l-32 -32v-608h-192z" />
    <glyph glyph-name="n" unicode="n" 
d="M0 0v832h640l64 -32l32 -32l32 -64v-704h-192v608l-32 32h-352v-640h-192z" />
    <glyph glyph-name="o" unicode="o" 
d="M544 192l32 32v384l-32 32h-320l-32 -32v-384l32 -32h320zM128 0l-64 32l-32 32l-32 64v576l32 64l32 32l64 32h512l64 -32l32 -32l32 -64v-576l-32 -64l-32 -32l-64 -32h-512z" />
    <glyph glyph-name="p" unicode="p" 
d="M544 512l32 32v64l-32 32h-352v-128h352zM0 0v832h640l64 -32l32 -32l32 -64v-256l-32 -64l-32 -32l-64 -32h-448v-320h-192z" />
    <glyph glyph-name="q" unicode="q" 
d="M544 192l32 32v384l-32 32h-320l-32 -32v-384l32 -32h320zM288 -128v128h-160l-64 32l-32 32l-32 64v576l32 64l32 32l64 32h512l64 -32l32 -32l32 -64v-576l-32 -64l-32 -32l-64 -32h-160v-128h-192z" />
    <glyph glyph-name="r" unicode="r" 
d="M544 512l32 32v64l-32 32h-352v-128h352zM0 0v832h640l64 -32l32 -32l32 -64v-192l-32 -64l-32 -32l32 -32l32 -64v-320h-192v288l-32 32h-352v-320h-192z" />
    <glyph glyph-name="s" unicode="s" 
d="M128 0l-64 32l-32 32l-32 64v128h192v-32l32 -32h320l32 32v64l-32 32h-416l-64 32l-32 32l-32 64v256l32 64l32 32l64 32h512l64 -32l32 -32l32 -64v-128h-192v32l-32 32h-320l-32 -32v-64l32 -32h416l64 -32l32 -32l32 -64v-256l-32 -64l-32 -32l-64 -32h-512z" />
    <glyph glyph-name="t" unicode="t" 
d="M288 0v640h-288v192h768v-192h-288v-640h-192z" />
    <glyph glyph-name="u" unicode="u" 
d="M128 0l-64 32l-32 32l-32 64v704h192v-608l32 -32h320l32 32v608h192v-704l-32 -64l-32 -32l-64 -32h-512z" />
    <glyph glyph-name="v" unicode="v" 
d="M352 0l-352 704v128h192v-128l192 -384l192 384v128h192v-128l-352 -704h-64z" />
    <glyph glyph-name="w" unicode="w" horiz-adv-x="896" 
d="M128 0l-64 32l-32 32l-32 64v704h192v-608l32 -32h64l32 32v416h192v-416l32 -32h64l32 32v608h192v-704l-32 -64l-32 -32l-64 -32h-192l-64 32l-32 32l-32 -32l-64 -32h-192z" />
    <glyph glyph-name="x" unicode="x" 
d="M0 0v320l32 64l32 32l-32 32l-32 64v320h192v-288l32 -32h320l32 32v288h192v-320l-32 -64l-32 -32l32 -32l32 -64v-320h-192v288l-32 32h-320l-32 -32v-288h-192z" />
    <glyph glyph-name="y" unicode="y" 
d="M128 0l-64 32l-32 32l-32 64v128h192v-32l32 -32h320l32 32v96h-448l-64 32l-32 32l-32 64v384h192v-288l32 -32h320l32 32v288h192v-704l-32 -64l-32 -32l-64 -32h-512z" />
    <glyph glyph-name="z" unicode="z" 
d="M0 0v384l32 64l32 32l64 32h416l32 32v96h-576v192h768v-384l-32 -64l-32 -32l-64 -32h-416l-32 -32v-96h576v-192h-768z" />
  </font>
</defs>
</svg>
