<svg xmlns="http://www.w3.org/2000/svg" xmlns:xlink="http://www.w3.org/1999/xlink" width="123" height="154" viewBox="0 0 123 154">
    <defs>
        <path id="a" d="M109.857 23.415V10c0-5.523-4.478-10-10-10H10C4.477 0 0 4.477 0 10v126.682a3.832 3.832 0 0 0 7.664 0V17.664c0-5.522 4.478-10 10-10h65.057a10 10 0 0 1 7.071 2.93l14.943 14.942a3 3 0 0 0 5.122-2.121z"/>
    </defs>
    <g fill="none" fill-rule="evenodd">
        <g fill-rule="nonzero">
            <use fill="#AF834D" fill-rule="evenodd" xlink:href="#a"/>
            <path stroke="#1F282F" d="M109.357 23.415V10a9.5 9.5 0 0 0-9.5-9.5H10A9.5 9.5 0 0 0 .5 10v126.682a3.332 3.332 0 0 0 6.664 0V17.664c0-5.799 4.701-10.5 10.5-10.5h65.057a10.5 10.5 0 0 1 7.425 3.076l14.943 14.943a2.5 2.5 0 0 0 4.268-1.768z"/>
        </g>
        <path stroke="#AF834D" stroke-width="6" d="M81.224 15.774h-58.45a7 7 0 0 0-7 7v120.514a7 7 0 0 0 7 7h89.857a7 7 0 0 0 7-7V51.281L86.174 17.824a7 7 0 0 0-4.95-2.05z"/>
        <path fill="#AF834D" d="M36.05 50.584h25.548a2.554 2.554 0 1 1 0 5.11H36.05a2.554 2.554 0 1 1 0-5.11zM36.05 30.76h25.548a2.554 2.554 0 1 1 0 5.11H36.05a2.554 2.554 0 1 1 0-5.11zM99.92 137.039H36.05a2.554 2.554 0 1 1 0-5.11h63.87a2.554 2.554 0 1 1 0 5.11zM99.92 117.215H36.05a2.554 2.554 0 1 1 0-5.11h63.87a2.554 2.554 0 1 1 0 5.11zM99.92 96.708H36.05a2.554 2.554 0 1 1 0-5.11h63.87a2.554 2.554 0 1 1 0 5.11zM99.92 76.201H36.05a2.554 2.554 0 1 1 0-5.11h63.87a2.554 2.554 0 1 1 0 5.11zM76.56 54.846V31.482a1.5 1.5 0 0 1 2.56-1.06l23.365 23.363a1.5 1.5 0 0 1-1.061 2.56H78.06a1.5 1.5 0 0 1-1.5-1.5z"/>
    </g>
</svg>
