<svg xmlns="http://www.w3.org/2000/svg" width="28" height="28" viewBox="0 0 28 28">
    <path fill="#FFF" fill-rule="nonzero" d="M26.117 6.995A13.936 13.936 0 0 0 21.023 1.9C18.878.649 16.537.023 13.997.023S9.116.65 6.971 1.901a13.935 13.935 0 0 0-5.094 5.094C.626 9.139 0 11.48 0 14.02c0 3.05.89 5.793 2.67 8.229 1.78 2.436 4.08 4.122 6.898 5.057.328.061.571.018.73-.127a.713.713 0 0 0 .236-.547l-.01-.984c-.005-.62-.008-1.16-.008-1.622l-.42.073c-.267.049-.604.07-1.011.064a7.707 7.707 0 0 1-1.267-.128 2.83 2.83 0 0 1-1.22-.546 2.312 2.312 0 0 1-.803-1.121l-.182-.42a4.554 4.554 0 0 0-.574-.929c-.261-.34-.525-.57-.793-.692l-.127-.092a1.338 1.338 0 0 1-.237-.218 1 1 0 0 1-.164-.256c-.037-.085-.006-.155.091-.21.097-.054.273-.081.529-.081l.364.054c.243.05.544.195.902.438.359.243.653.559.884.947.28.499.616.878 1.012 1.14.394.26.792.391 1.193.391s.747-.03 1.039-.09c.291-.061.565-.153.82-.274.11-.815.407-1.44.893-1.878a12.48 12.48 0 0 1-1.868-.328 7.438 7.438 0 0 1-1.713-.71 4.907 4.907 0 0 1-1.467-1.222c-.389-.486-.708-1.124-.957-1.913-.249-.79-.374-1.702-.374-2.734 0-1.47.48-2.722 1.44-3.755-.45-1.105-.407-2.345.128-3.718.352-.109.875-.027 1.567.246.693.274 1.2.508 1.522.702.322.194.58.359.775.492a12.941 12.941 0 0 1 3.499-.473c1.203 0 2.37.157 3.5.473l.692-.437a9.808 9.808 0 0 1 1.677-.802c.644-.243 1.136-.31 1.476-.2.547 1.373.596 2.612.146 3.717.96 1.033 1.44 2.285 1.44 3.755 0 1.033-.125 1.947-.374 2.743-.249.796-.57 1.433-.965 1.913s-.888.885-1.477 1.212c-.59.328-1.16.565-1.713.711-.553.146-1.176.256-1.868.329.631.546.947 1.409.947 2.588v3.845c0 .218.076.4.228.546.152.146.392.189.72.128 2.82-.936 5.119-2.622 6.899-5.058 1.78-2.436 2.67-5.178 2.67-8.228-.001-2.54-.627-4.88-1.878-7.025z"/>
</svg>
