<?xml version="1.0" encoding="UTF-8"?>
<svg width="104px" height="104px" viewBox="0 0 104 104" version="1.1" xmlns="http://www.w3.org/2000/svg" xmlns:xlink="http://www.w3.org/1999/xlink">
    <!-- Generator: Sketch 45.1 (43504) - http://www.bohemiancoding.com/sketch -->
    <title>Group 6</title>
    <desc>Created with Sketch.</desc>
    <defs></defs>
    <g id="Page-1" stroke="none" stroke-width="1" fill="none" fill-rule="evenodd">
        <g id="Landing-v-2" transform="translate(-396.000000, -1130.000000)">
            <g id="Roadmap" transform="translate(250.000000, 1044.000000)">
                <g id="Group-6" transform="translate(148.000000, 88.000000)">
                    <g id="piggy-bank" transform="translate(18.000000, 13.000000)" fill-rule="nonzero" fill="#AF834D">
                        <path d="M33.5855762,0 C28.2356445,0 23.8830566,4.35258789 23.8830566,9.70251953 C23.8830566,15.0524512 28.2356445,19.4050391 33.5855762,19.4050391 C38.9355078,19.4050391 43.2880957,15.0524512 43.2880957,9.70251953 C43.2880957,4.35258789 38.9355078,0 33.5855762,0 Z M32.567793,9.7703125 L31.3465039,9.7703125 L31.3465039,6.37787109 L32.567793,6.37787109 L32.567793,9.7703125 Z M32.567793,4.34243164 L30.3287207,4.34243164 C29.7666992,4.34243164 29.3109375,4.79793945 29.3109375,5.36021484 L29.3109375,10.7882227 C29.3109375,11.3503711 29.7665723,11.8060059 30.3287207,11.8060059 L32.567793,11.8060059 L32.567793,14.1128711 L30.3287207,14.1128711 C29.7666992,14.1128711 29.3109375,14.5683789 29.3109375,15.1306543 C29.3109375,15.6929297 29.7665723,16.1484375 30.3287207,16.1484375 L32.567793,16.1484375 L32.567793,17.3001563 C28.8198828,16.8004688 25.9184961,13.585127 25.9184961,9.70277344 C25.9184961,5.82041992 28.8198828,2.60495117 32.567793,2.10539062 L32.567793,4.34243164 Z M34.6033594,11.8058789 L35.8246484,11.8058789 L35.8246484,14.1127441 L34.6033594,14.1127441 L34.6033594,11.8058789 Z M34.6033594,17.2999023 L34.6033594,16.1481836 L36.8424316,16.1481836 C37.4044531,16.1481836 37.8602148,15.6926758 37.8602148,15.1304004 L37.8602148,10.7880957 C37.8602148,10.2259473 37.4045801,9.7703125 36.8424316,9.7703125 L34.6033594,9.7703125 L34.6033594,6.37787109 L36.8424316,6.37787109 C37.4044531,6.37787109 37.8602148,5.92236328 37.8602148,5.36008789 C37.8602148,4.79793945 37.4045801,4.34230469 36.8424316,4.34230469 L34.6033594,4.34230469 L34.6033594,2.10513672 C38.3512695,2.60482422 41.2526563,5.82016602 41.2526563,9.70251953 C41.2526563,13.584873 38.3512695,16.8002148 34.6033594,17.2999023 Z" id="Shape"></path>
                        <path d="M52.6466992,47.8650098 C52.1391406,47.623418 51.5317969,47.8388574 51.2902051,48.3461621 C49.8875,51.2913477 46.8795996,53.1941211 43.6273145,53.1941211 C43.065293,53.1941211 42.6095313,53.6496289 42.6095313,54.2119043 C42.6095313,54.7740527 43.065166,55.2296875 43.6273145,55.2296875 C47.6603613,55.2296875 51.3894824,52.8714063 53.1278516,49.2217578 C53.3695703,48.7140723 53.1542578,48.1067285 52.6466992,47.8650098 Z" id="Shape"></path>
                        <path d="M53.1263281,33.6534961 C52.5643066,33.6534961 52.1085449,34.1090039 52.1085449,34.6712793 L52.1085449,41.1851172 C52.1085449,41.7471387 52.5641797,42.2029004 53.1263281,42.2029004 C53.6883496,42.2029004 54.1441113,41.7472656 54.1441113,41.1851172 L54.1441113,34.6712793 C54.1441113,34.1090039 53.6883496,33.6534961 53.1263281,33.6534961 Z" id="Shape"></path>
                        <path d="M57.4686328,21.7119043 C56.9066113,21.7119043 56.4508496,22.1674121 56.4508496,22.7296875 C56.4508496,23.2919629 56.9064844,23.7474707 57.4686328,23.7474707 C60.4990039,23.7474707 62.9644336,26.2129004 62.9644336,29.2432715 C62.9644336,31.9301074 61.0258594,34.1712109 58.4742285,34.6452539 C58.1742383,26.8644238 51.7518066,20.6264551 43.8986133,20.6264551 L26.4434473,20.6264551 L18.0623828,11.1977734 C17.7818164,10.8819141 17.3350684,10.7724805 16.9399902,10.9225391 C16.5449121,11.0727246 16.2838965,11.4511719 16.2838965,11.8737988 L16.2838965,20.8675391 C9.49914062,22.1159961 4.34230469,28.0739062 4.34230469,35.2141309 L4.34230469,36.3422363 L0.850332031,36.9243164 C0.359785156,37.0059473 0,37.4304785 0,37.9280078 L0,46.6127441 C0,47.1102734 0.359658203,47.5348047 0.850458984,47.6165625 L4.71351563,48.2604687 C6.13564453,54.4609863 11.4679297,59.0385352 17.8079688,59.5250195 L18.465332,64.1261816 C18.5369336,64.6276465 18.9662891,65.000127 19.472959,65.000127 L25.986543,65.000127 C26.492959,65.000127 26.9224414,64.6277734 26.9941699,64.1261816 L27.6446777,59.5721191 L37.3555762,59.5721191 L38.006084,64.1261816 C38.0776855,64.6276465 38.507041,65.000127 39.0137109,65.000127 L45.5272949,65.000127 C46.0337109,65.000127 46.4631934,64.6277734 46.5349219,64.1261816 L47.2406543,59.1855469 C53.7998145,57.6527148 58.486543,51.7956055 58.486543,44.9844434 L58.486543,36.7039258 C62.1594238,36.2052539 65,33.0507227 65,29.2432715 C65,25.0905078 61.6215234,21.7119043 57.4686328,21.7119043 Z M2.03543945,45.7506055 L2.03543945,38.7900195 L4.34230469,38.4056055 L4.34230469,44.9843164 C4.34230469,45.3708887 4.35982422,45.7577148 4.39016602,46.1430176 L2.03543945,45.7506055 Z M18.3194629,14.5506055 L23.7201758,20.6263281 L18.9301074,20.6263281 L18.3194629,20.6263281 L18.3194629,14.5506055 Z M25.1037109,62.9645605 L20.3555371,62.9645605 L19.870957,59.5721191 L25.588418,59.5721191 L25.1037109,62.9645605 Z M44.6444629,62.9645605 L39.8962891,62.9645605 L39.411582,59.5721191 L43.8987402,59.5721191 C44.3115918,59.5721191 44.7249512,59.5530762 45.1367871,59.518418 L44.6444629,62.9645605 Z M56.4509766,35.7567285 L56.4509766,44.9843164 C56.4509766,51.0592773 52.1197168,56.2533105 46.1522852,57.3345703 C45.4126562,57.4685059 44.6543652,57.5365527 43.8987402,57.5365527 L38.2381543,57.5365527 L26.7619727,57.5365527 L18.9301074,57.5365527 C18.8692969,57.5365527 18.8086133,57.5354102 18.7483105,57.5343945 L18.714541,57.5337598 L18.7144141,57.5337598 C18.7142871,57.5337598 18.7142871,57.5337598 18.7142871,57.5337598 C12.72375,57.432832 7.61706055,53.0840527 6.57172852,47.1935547 C6.443125,46.4690332 6.37799805,45.7258496 6.37799805,44.9843164 L6.37799805,37.204248 L6.37799805,35.2140039 C6.37799805,28.2926465 12.008877,22.6617676 18.9302344,22.6617676 L25.986543,22.6617676 L43.8988672,22.6617676 C50.8202246,22.6617676 56.4511035,28.2926465 56.4511035,35.2140039 L56.4511035,35.7567285 L56.4509766,35.7567285 Z" id="Shape"></path>
                        <path d="M14.0449512,31.4822168 C11.6879395,31.4822168 9.77043945,33.3998438 9.77043945,35.7567285 C9.77043945,38.1136133 11.6880664,40.0312402 14.0449512,40.0312402 C16.4018359,40.0312402 18.3194629,38.1136133 18.3194629,35.7567285 C18.3194629,33.3998438 16.4018359,31.4822168 14.0449512,31.4822168 Z M14.0449512,37.9958008 C12.810332,37.9958008 11.8058789,36.9913477 11.8058789,35.7567285 C11.8058789,34.5221094 12.810332,33.5176563 14.0449512,33.5176563 C15.2795703,33.5176563 16.2840234,34.5221094 16.2840234,35.7567285 C16.2840234,36.9913477 15.2794434,37.9958008 14.0449512,37.9958008 Z" id="Shape"></path>
                        <path d="M42.2703125,27.1399121 L23.8151367,27.1399121 C23.2531152,27.1399121 22.7973535,27.5954199 22.7973535,28.1576953 L22.7973535,33.5857031 C22.7973535,34.1478516 23.2529883,34.6034863 23.8151367,34.6034863 L42.2703125,34.6034863 C42.832334,34.6034863 43.2880957,34.1479785 43.2880957,33.5857031 L43.2880957,28.1576953 C43.2880957,27.5954199 42.8324609,27.1399121 42.2703125,27.1399121 Z M41.2526563,32.567793 L24.8330469,32.567793 L24.8330469,29.1753516 L41.2526563,29.1753516 L41.2526563,32.567793 Z" id="Shape"></path>
                    </g>
                    <circle id="Oval" stroke="#AF834D" stroke-width="3" cx="50" cy="50" r="50"></circle>
                </g>
            </g>
        </g>
    </g>
</svg>