<?xml version="1.0" encoding="UTF-8"?>
<svg width="104px" height="104px" viewBox="0 0 104 104" version="1.1" xmlns="http://www.w3.org/2000/svg" xmlns:xlink="http://www.w3.org/1999/xlink">
    <!-- Generator: Sketch 45.1 (43504) - http://www.bohemiancoding.com/sketch -->
    <title>Group 12</title>
    <desc>Created with Sketch.</desc>
    <defs></defs>
    <g id="Page-1" stroke="none" stroke-width="1" fill="none" fill-rule="evenodd">
        <g id="Landing-v-2" transform="translate(-1016.000000, -1130.000000)">
            <g id="Roadmap" transform="translate(250.000000, 1044.000000)">
                <g id="Group-12" transform="translate(768.000000, 88.000000)">
                    <g id="two" transform="translate(2.000000, 2.000000)" stroke="#1F282F" fill-rule="nonzero" fill="#AF834D">
                        <path d="M61.7956937,62.9188196 C61.0217571,62.3151297 59.8992109,62.0128983 58.4270889,62.0128983 L43.6507946,62.0128983 C44.1223065,61.2959683 44.5849293,60.6824231 45.0378899,60.1730357 C46.0945404,58.8899049 48.0428121,57.0875313 50.8832849,54.7663014 C53.7231779,52.4450715 55.7472007,50.7422178 56.9551602,49.6569674 C58.1627331,48.5721036 59.3471169,47.0717681 60.5077318,45.1561544 C61.6683468,43.2409271 62.2486543,41.113133 62.2486543,38.7729653 C62.2486543,37.2824852 61.9699985,35.8432145 61.4136531,34.4561192 C60.8567279,33.0690239 60.0783468,31.8473443 59.0783164,30.7903073 C58.0778996,29.7336569 56.9172846,28.9034867 55.5964715,28.2992172 C53.558342,27.3932959 51.0956585,26.9405286 48.208421,26.9405286 C45.8116332,26.9405286 43.7217147,27.2943557 41.9384721,28.0020101 C40.1552295,28.7096644 38.6831075,29.6393545 37.5224925,30.7903073 C36.3618776,31.9416467 35.4888076,33.2247774 34.9040555,34.6400861 C34.3189169,36.0553948 34.0265409,37.4140834 34.0265409,38.7163452 C34.0265409,39.7919334 34.3378547,40.6412346 34.9606756,41.2640555 C35.5834964,41.8868763 36.3663221,42.1981901 37.3101189,42.1981901 C38.3857072,42.1981901 39.2017706,41.8584697 39.7586957,41.179222 C40.3150411,40.499781 40.8153462,39.5281573 41.2590312,38.2635778 C41.7021364,36.9993848 42.0184745,36.2254483 42.2072725,35.9423479 C43.6225812,33.7724269 45.5660219,32.6869833 48.0385608,32.6869833 C49.2084514,32.6869833 50.2890639,32.9515324 51.2796254,33.4796644 C52.2703802,34.0081829 53.0532059,34.7490749 53.6290688,35.7017609 C54.2045452,36.6550266 54.4924766,37.7354459 54.4924766,38.9428255 C54.4924766,40.0564825 54.223483,41.1933287 53.6856888,42.3537504 C53.1478947,43.5141721 52.3644893,44.6465737 51.3362455,45.7505686 C50.307422,46.8545635 49.0194601,47.9541138 47.47236,49.0482533 C46.6041211,49.6333918 45.1604057,50.8554579 43.1414072,52.7140651 C41.1218289,54.5730588 38.8574123,56.8044309 36.3477708,59.4087613 C35.7436945,60.0505199 35.1871559,60.9328655 34.6775752,62.0554117 C34.1679945,63.1785376 33.9133008,64.0794345 33.9133008,64.7586822 C33.9133008,65.8157192 34.3096413,66.7357471 35.1021291,67.5185728 C35.8948102,68.3019783 36.9986119,68.6932945 38.4141138,68.6932945 L59.2481767,68.6932945 C60.4936251,68.6932945 61.4229287,68.3727051 62.0364739,67.7309464 C62.6494394,67.0895743 62.9565019,66.3063621 62.9565019,65.3815031 C62.9563086,64.3439836 62.5692437,63.5230891 61.7956937,62.9188196 Z" id="Shape"></path>
                    </g>
                    <g id="Group-11" stroke-width="3" stroke="#AF834D">
                        <circle id="Oval" cx="50" cy="50" r="50"></circle>
                    </g>
                </g>
            </g>
        </g>
    </g>
</svg>