<svg xmlns="http://www.w3.org/2000/svg" width="104" height="104" viewBox="0 0 104 104">
    <g fill="none" fill-rule="evenodd" transform="translate(2 2)">
        <g fill-rule="nonzero">
            <path fill="#FFF" stroke="#FFF" d="M54.663 16.158a1.184 1.184 0 1 0-.326 2.346c13.527 1.875 24.283 12.632 26.159 26.158a1.185 1.185 0 0 0 2.346-.325c-2.02-14.571-13.608-26.159-28.18-28.18z"/>
            <path fill="#EFEFEF" stroke="#EFEFEF" d="M91.98 44.79c-1.886-20-17.77-35.884-37.77-37.77a4.731 4.731 0 0 0-5.167 4.71v4.127C31.28 16.406 17 31.027 17 48.921 17 67.16 31.84 82 50.08 82c17.893 0 32.514-14.28 33.063-32.043h4.127a4.73 4.73 0 0 0 4.71-5.168zm-41.9 34.842c-16.935 0-30.712-13.777-30.712-30.711 0-16.587 13.22-30.145 29.675-30.694v28.774a2.96 2.96 0 0 0 2.956 2.956h28.774c-.55 16.456-14.107 29.675-30.694 29.675zm38.938-32.816a2.337 2.337 0 0 1-1.748.773H52A.588.588 0 0 1 51.41 47V11.73c0-.674.274-1.294.773-1.748a2.324 2.324 0 0 1 1.804-.603c18.869 1.778 33.855 16.764 35.633 35.632a2.326 2.326 0 0 1-.603 1.805z"/>
        </g>
        <circle cx="50" cy="50" r="50" stroke="#AF834D" stroke-width="3"/>
    </g>
</svg>
