<?xml version="1.0" encoding="UTF-8"?>
<svg width="104px" height="104px" viewBox="0 0 104 104" version="1.1" xmlns="http://www.w3.org/2000/svg" xmlns:xlink="http://www.w3.org/1999/xlink">
    <!-- Generator: Sketch 45.1 (43504) - http://www.bohemiancoding.com/sketch -->
    <title>Group 8</title>
    <desc>Created with Sketch.</desc>
    <defs></defs>
    <g id="Page-1" stroke="none" stroke-width="1" fill="none" fill-rule="evenodd">
        <g id="Landing-v-2" transform="translate(-644.000000, -1130.000000)">
            <g id="Roadmap" transform="translate(250.000000, 1044.000000)">
                <g id="Group-8" transform="translate(396.000000, 88.000000)">
                    <g id="loader" transform="translate(21.000000, 26.000000)" stroke="#1F282F" stroke-width="0.5" fill="#AF834D" fill-rule="nonzero">
                        <path d="M59.9000391,12.8050781 L55.9000781,0.805078125 C55.8001172,0.405117187 55.4000391,0.105117187 55.0000781,0.105117187 L53.0000391,0.105117187 C52.6000781,0.105117187 52.3000781,0.30515625 52.1000391,0.705117187 L50.214375,5.10515625 L30,5.10515625 C29.7999609,5.10515625 29.4999609,5.20511719 29.3000391,5.40515625 L16.5711328,18.1340625 C15.0863672,18.3323437 14.0000391,19.5513281 14.0000391,21.1051172 L14.0000391,28.1050781 L9,28.1050781 L4.10003906,28.1050781 C1.8,28.1050781 0,30.0050391 0,32.205 L0,33.105 L0,37.1049609 C0,37.7049609 0.399960937,38.1049219 0.999960937,38.1049219 L15.9999609,38.1049219 L15.9999609,39.1048828 L6.50003906,39.1048828 C2.90003906,39.105 0,42.0050391 0,45.6050391 C0,49.2050391 2.90003906,52.1050781 6.50003906,52.1050781 L37.5,52.1050781 C41.1,52.1050781 44.0000391,49.2050391 44.0000391,45.6050391 C44.0000391,42.0050391 41.1,39.105 37.5,39.105 L27.9999609,39.105 L27.9999609,38.1050391 L30.9999609,38.1050391 C31.5999609,38.1050391 31.9999219,37.7050781 31.9999219,37.1050781 L31.9999219,33.4911328 C32.0600391,33.3678516 32.0998828,33.2367187 32.0998828,33.1051172 L32.0998828,25.3051172 C32.0998828,22.9051172 30.8998828,20.7051563 28.8998438,19.3051172 C28.3903125,18.9655078 27.8444531,18.6986719 27.2628516,18.5032031 L32.4998438,13.1050781 L49.4705859,12.4414453 L51.8783203,34.1112891 C51.3466406,34.1620312 50.9998828,34.5467578 50.9998828,35.1051562 L50.9998828,39.1051172 C50.9998828,39.4833984 51.1591406,39.781875 51.4269141,39.9509766 L46.0998047,50.6050781 C45.8997656,50.9050781 45.8997656,51.3050391 46.0998047,51.6050391 C46.2998438,51.9050391 46.6998047,52.1050781 46.9998047,52.1050781 L52.6998047,52.1050781 C55.6998047,52.1050781 58.3998047,50.2051172 59.2998047,47.2051172 C59.7998438,45.8050781 59.7998438,44.2051172 59.2998047,42.8050781 L58.3589063,40.0497656 C58.7535938,39.9213281 58.9998047,39.5751563 58.9998047,39.1051172 L58.9998047,35.1051563 C58.9998047,34.5051563 58.5998438,34.1051953 57.9998438,34.1051953 L59.8998047,13.2051563 C60,13.1050781 59.9000391,12.9050391 59.9000391,12.8050781 Z M53.7,2.10503906 L54.3,2.10503906 L57.9999609,13.2050391 L56.1,34.1050781 L53.9000391,34.1050781 L51,8.30507812 L53.7,2.10503906 Z M57,38.0050781 L53.0000391,38.0050781 L53.0000391,36.1051172 L57,36.1051172 L57,38.0050781 Z M25.9980469,20.2492969 C26.7535547,20.4331641 27.4545703,20.7880078 28.0522266,21.2807812 C28.0952344,21.316875 28.1387109,21.3526172 28.1805469,21.3898828 C28.1925,21.4004297 28.2043359,21.4110937 28.2162891,21.4217578 C28.4397656,21.6244922 28.6457812,21.8441016 28.8325781,22.0775391 C28.8551953,22.1061328 28.8774609,22.1350781 28.8994922,22.1641406 C28.9163672,22.1861719 28.9326562,22.2086719 28.9491797,22.2308203 C29.2099219,22.5868359 29.43,22.9798828 29.6000391,23.4049219 C29.6368359,23.4783984 29.6703516,23.551875 29.7012891,23.6255859 C29.8937109,24.1608984 30.0001172,24.7267969 30.0001172,25.305 L30.0001172,31.7049609 L23.0001563,29.205 C21.8001563,28.7049609 21.0001172,27.6050391 21.0001172,26.3049609 L21.0001172,20.1049219 L24.7000781,20.1049219 C25.1391797,20.1050391 25.5779297,20.1536719 25.9980469,20.2492969 Z M4.09816406,30.1051172 C4.09875,30.1051172 4.09933594,30.105 4.09992187,30.105 L7.99992187,30.105 C7.99992187,31.2050391 7.09992187,32.1050391 5.99988281,32.1050391 L2.00472656,32.1050391 C2.00542969,32.0876953 2.00601562,32.0702344 2.0071875,32.0530078 C2.13046875,30.9776953 3.01652344,30.1061719 4.09816406,30.1051172 Z M42,45.6050391 C42,48.105 39.9999609,50.1050391 37.5,50.1050391 L6.50003906,50.1050391 C4.00007812,50.1050391 2.00003906,48.105 2.00003906,45.6050391 C2.00003906,43.1050781 4.00007812,41.1050391 6.50003906,41.1050391 L17.0000391,41.1050391 L27,41.1050391 L37.5,41.1050391 C39.9999609,41.1050391 42,43.1050781 42,45.6050391 Z M26.0000391,39.105 L18,39.105 L18,38.1050391 L26.0000391,38.1050391 L26.0000391,39.105 Z M27,36.105 L17.0000391,36.105 L2.00003906,36.105 L2.00003906,34.1050781 L6,34.1050781 C8.19996094,34.1050781 9.99996094,32.3050781 9.99996094,30.1051172 L15,30.1051172 C15.6,30.1051172 15.9999609,29.7051562 15.9999609,29.1051562 L15.9999609,21.1051172 C15.9999609,20.6050781 16.3999219,20.1051562 16.9999219,20.1051562 L19.0999219,20.1051562 L19.0999219,26.2051172 C19.0999219,28.4050781 20.3998828,30.3051562 22.3999219,31.0051172 L30,33.7519922 L30,36.105 L27,36.105 Z M32.0000391,11.1050391 C31.7000391,11.1050391 31.5,11.205 31.3000781,11.4050391 L24.9001172,18.105 L24.8001562,18.105 L24.7001953,18.105 L20.1,18.105 L19.4000391,18.105 L30.4000781,7.10496094 L49.3572656,7.10496094 L49.1001562,7.70496094 C49.0001953,7.905 49.0001953,8.00496094 49.0001953,8.205 L49.2338672,10.3080469 L32.0000391,11.1050391 Z M57.3999609,46.7050781 C56.7999609,48.7051172 54.9,50.1050391 52.6999219,50.1050391 L48.6,50.1050391 L53.6000391,40.1050781 L56.3000391,40.1050781 L57.4000781,43.5050391 C57.6999609,44.6050781 57.6999609,45.705 57.3999609,46.7050781 Z" id="Shape"></path>
                        <path d="M8.00003906,42.105 C7.93394531,42.105 7.87078125,42.110625 7.80996094,42.1201172 C7.70765625,42.110625 7.60441406,42.105 7.50011719,42.105 C5.60015625,42.105 4.00007812,43.7049609 4.00007812,45.6050391 C4.00007812,47.505 5.60003906,49.1050781 7.50011719,49.1050781 C7.60441406,49.1050781 7.70765625,49.0994531 7.80996094,49.0899609 C7.87089844,49.0993359 7.9340625,49.1050781 8.00003906,49.1050781 L36,49.1050781 C36.0609375,49.1050781 36.1192969,49.0986328 36.1758984,49.0889063 C36.2827734,49.0992188 36.3908203,49.1050781 36.5000391,49.1050781 C38.4,49.1050781 40.0000781,47.5051172 40.0000781,45.6050391 C40.0000781,43.7050781 38.4001172,42.105 36.5000391,42.105 C36.3957422,42.105 36.2925,42.110625 36.1901953,42.1201172 C36.1292578,42.1107422 36.0660937,42.105 36.0001172,42.105 L8.00003906,42.105 Z M6,45.6050391 C6,44.805 6.69996094,44.1050391 7.5,44.1050391 C8.24707031,44.1050391 8.90648437,44.7155859 8.990625,45.4478906 C8.99109375,45.4517578 8.99179687,45.4555078 8.99214844,45.459375 C8.99730469,45.5075391 9,45.5560547 9,45.6050391 C9,45.6540234 8.9971875,45.7026563 8.99214844,45.7507031 C8.99179687,45.7545703 8.99097656,45.7583203 8.990625,45.7621875 C8.90660156,46.4944922 8.2471875,47.1050391 7.5,47.1050391 C6.69996094,47.1050391 6,46.4050781 6,45.6050391 Z M11.0000391,45.6050391 C11.0000391,45.105 10.9000781,44.6050781 10.7000391,44.1050391 L33.3494531,44.1050391 C33.1262109,44.5623047 33.0001172,45.0718359 33.0001172,45.6050391 C33.0001172,46.1382422 33.1262109,46.6477734 33.3494531,47.1050391 L10.7000391,47.1050391 C10.8999609,46.605 11.0000391,46.1050781 11.0000391,45.6050391 Z M38.0000391,45.6050391 C38.0000391,46.4050781 37.3000781,47.1050391 36.5000391,47.1050391 C35.7529687,47.1050391 35.0935547,46.4944922 35.0094141,45.7621875 C35.0089453,45.7583203 35.0082422,45.7545703 35.0078906,45.7507031 C35.0027344,45.7025391 35.0000391,45.6540234 35.0000391,45.6050391 C35.0000391,45.5552344 35.0027344,45.5057812 35.0080078,45.4567969 C35.0886328,44.7195703 35.7503906,44.1049219 36.5000391,44.1049219 C37.2999609,44.1050391 38.0000391,44.805 38.0000391,45.6050391 Z" id="Shape"></path>
                    </g>
                    <circle id="Oval" stroke="#AF834D" stroke-width="3" cx="50" cy="50" r="50"></circle>
                </g>
            </g>
        </g>
    </g>
</svg>