<svg xmlns="http://www.w3.org/2000/svg" width="104" height="104" viewBox="0 0 104 104">
    <g fill="none" fill-rule="evenodd" transform="translate(2 2)">
        <g fill-rule="nonzero">
            <path fill="#EFEFEF" d="M80.9 38.805l-4-12c-.1-.4-.5-.7-.9-.7h-2c-.4 0-.7.2-.9.6l-1.886 4.4H51c-.2 0-.5.1-.7.3l-12.729 12.73C36.086 44.331 35 45.55 35 47.104v7h-9.9c-2.3 0-4.1 1.9-4.1 4.1v4.9c0 .6.4 1 1 1h15v1h-9.5c-3.6 0-6.5 2.9-6.5 6.5s2.9 6.5 6.5 6.5h31c3.6 0 6.5-2.9 6.5-6.5s-2.9-6.5-6.5-6.5H49v-1h3c.6 0 1-.4 1-1v-3.614a.89.89 0 0 0 .1-.386v-7.8c0-2.4-1.2-4.6-3.2-6a6.903 6.903 0 0 0-1.637-.802l5.237-5.398 16.97-.664 2.408 21.67c-.531.051-.878.436-.878.994v4c0 .378.16.677.427.846L67.1 76.605c-.2.3-.2.7 0 1 .2.3.6.5.9.5h5.7c3 0 5.7-1.9 6.6-4.9.5-1.4.5-3 0-4.4l-.941-2.755c.395-.129.64-.475.64-.945v-4c0-.6-.4-1-1-1l1.9-20.9c.101-.1.001-.3.001-.4zm-6.2-10.7h.6l3.7 11.1-1.9 20.9h-2.2l-2.9-25.8 2.7-6.2zm3.3 35.9h-4v-1.9h4v1.9zM46.998 46.25a5.142 5.142 0 0 1 2.054 1.032c.043.036.087.072.129.109l.035.032a5.662 5.662 0 0 1 .683.742l.05.067c.26.356.481.749.651 1.174.037.073.07.147.101.22.193.536.3 1.102.3 1.68v6.4l-7-2.5c-1.2-.5-2-1.6-2-2.9v-6.2h3.7c.438 0 .877.049 1.297.144zm-21.9 9.856H29c0 1.1-.9 2-2 2h-3.995l.002-.052c.123-1.075 1.01-1.947 2.091-1.948zM63 71.605c0 2.5-2 4.5-4.5 4.5h-31c-2.5 0-4.5-2-4.5-4.5s2-4.5 4.5-4.5h31c2.5 0 4.5 2 4.5 4.5zm-16-6.5h-8v-1h8v1zm1-3H23v-2h4c2.2 0 4-1.8 4-4h5c.6 0 1-.4 1-1v-8c0-.5.4-1 1-1h2.1v6.1c0 2.2 1.3 4.1 3.3 4.8l7.6 2.747v2.353h-3zm5-25c-.3 0-.5.1-.7.3l-6.4 6.7h-5.5l11-11h18.957l-.257.6c-.1.2-.1.3-.1.5l.234 2.103L53 37.105zm25.4 35.6c-.6 2-2.5 3.4-4.7 3.4h-4.1l5-10h2.7l1.1 3.4c.3 1.1.3 2.2 0 3.2z"/>
            <path fill="#FFF" stroke="#1F282F" stroke-width=".5" d="M29 68.105c-.066 0-.13.006-.19.015a3.35 3.35 0 0 0-.31-.015c-1.9 0-3.5 1.6-3.5 3.5s1.6 3.5 3.5 3.5c.104 0 .208-.006.31-.015.06.01.124.015.19.015h28c.06 0 .12-.006.176-.016.107.01.215.016.324.016 1.9 0 3.5-1.6 3.5-3.5s-1.6-3.5-3.5-3.5a3.35 3.35 0 0 0-.31.015 1.245 1.245 0 0 0-.19-.015H29zm-2 3.5c0-.8.7-1.5 1.5-1.5.747 0 1.406.61 1.49 1.343l.002.011a1.367 1.367 0 0 1 0 .292l-.001.011c-.084.732-.744 1.343-1.491 1.343-.8 0-1.5-.7-1.5-1.5zm5 0c0-.5-.1-1-.3-1.5h22.65c-.224.457-.35.967-.35 1.5s.126 1.043.35 1.5H31.7c.2-.5.3-1 .3-1.5zm27 0c0 .8-.7 1.5-1.5 1.5-.747 0-1.406-.61-1.49-1.343l-.002-.011a1.367 1.367 0 0 1 0-.294c.08-.737.742-1.352 1.492-1.352.8 0 1.5.7 1.5 1.5z"/>
        </g>
        <circle cx="50" cy="50" r="50" stroke="#AF834D" stroke-width="3"/>
    </g>
</svg>
