<svg xmlns="http://www.w3.org/2000/svg" width="104" height="104" viewBox="0 0 104 104">
    <g fill="none" fill-rule="evenodd" transform="translate(2 2)">
        <g fill-rule="nonzero">
            <path fill="#FFF" stroke="#1F282F" stroke-width=".5" d="M33.677 67.872c-.071 0-.14.006-.205.016a3.61 3.61 0 0 0-.334-.016c-2.047 0-3.771 1.724-3.771 3.771 0 2.047 1.724 3.771 3.771 3.771.113 0 .224-.006.334-.016.066.01.134.016.205.016h30.168c.066 0 .129-.007.19-.017.115.011.231.017.349.017 2.047 0 3.77-1.724 3.77-3.77 0-2.048-1.723-3.772-3.77-3.772a3.61 3.61 0 0 0-.334.016 1.342 1.342 0 0 0-.205-.016H33.677zm-2.155 3.771c0-.862.754-1.616 1.616-1.616.805 0 1.515.658 1.606 1.447l.002.012a1.473 1.473 0 0 1 0 .314l-.002.012c-.09.79-.8 1.447-1.606 1.447-.862 0-1.616-.754-1.616-1.616zm5.387 0c0-.539-.108-1.077-.323-1.616h24.403a3.678 3.678 0 0 0-.376 1.616c0 .575.136 1.124.376 1.616H36.586a4.322 4.322 0 0 0 .323-1.616zm29.091 0c0 .862-.754 1.616-1.616 1.616-.805 0-1.516-.658-1.606-1.447l-.002-.012a1.473 1.473 0 0 1 0-.317v-.001c.087-.793.8-1.455 1.608-1.455.862 0 1.616.754 1.616 1.616z"/>
            <path fill="#EFEFEF" d="M71.387 45.354v-1.186h1.078c.646 0 1.077-.43 1.077-1.077s-.43-1.077-1.077-1.077h-1.078V22.552c2.014-.36 3.556-2.13 3.556-4.242 0-2.37-1.94-4.31-4.31-4.31-2.135 0-3.92 1.574-4.253 3.619L43.682 42.014h-.308c-1.832 0-3.233 1.4-3.233 3.232v7.542H29.474c-2.477 0-4.417 2.047-4.417 4.417V62.485c0 .646.431 1.077 1.078 1.077h16.161v1.078H32.061a6.99 6.99 0 0 0-7.004 7.003 6.99 6.99 0 0 0 7.004 7.003h33.4a6.99 6.99 0 0 0 7.004-7.003 6.99 6.99 0 0 0-7.004-7.003H55.226v-1.078h3.232c.646 0 1.077-.43 1.077-1.077V58.59a.96.96 0 0 0 .108-.416v-8.404c0-2.586-1.293-4.956-3.448-6.465a7.444 7.444 0 0 0-.576-.346l3.442-4.598c.184-.134.314-.317.391-.522l7.019-9.374a1.13 1.13 0 0 0 .427-.57l2.334-3.117v17.234h-1.077c-.647 0-1.077.431-1.077 1.078 0 .646.43 1.077 1.077 1.077h1.077v2.155c0 .323.108.539.324.754.215.216.43.324.754.324 1.185 0 2.155.97 2.155 2.155 0 1.185-.97 2.154-2.155 2.154a2.161 2.161 0 0 1-2.155-2.154c0-.647-.431-1.078-1.078-1.078-.646 0-1.077.431-1.077 1.078 0 2.37 1.94 4.31 4.31 4.31 2.37 0 4.31-1.94 4.31-4.31 0-2.048-1.401-3.772-3.233-4.202zm-6.68-18.748l-4.054.5 3.795-4.06.26 3.56zm-7.434 9.913l-6.168.798 5.798-6.2.37 5.402zm1.724-7.004l4.431-.545-4.094 5.469-.337-4.924zm7.467-8.624l.398-.426c.137.205.286.398.448.582.35.424.78.78 1.266 1.046l-1.832 2.447-.28-3.65zm4.169-4.736c1.185 0 2.155.97 2.155 2.155 0 1.185-.97 2.155-2.155 2.155-.37 0-.719-.095-1.024-.26l-.007-.005a2.227 2.227 0 0 1-1.114-1.687 2.161 2.161 0 0 1 2.145-2.359zM57.376 49.517c.003.084.004.168.004.254v6.788l-7.542-2.694c-1.293-.538-2.155-1.723-2.155-3.124v-6.573h4.095c2.262 0 4.31 1.401 5.171 3.556.282.562.4 1.124.425 1.757l.002.036zm-23.7 5.426c0 1.185-.969 2.155-2.154 2.155h-4.305c0-.019.002-.038.003-.056.133-1.16 1.088-2.1 2.255-2.1h4.202zm36.634 16.7a4.828 4.828 0 0 1-4.849 4.849h-33.4a4.828 4.828 0 0 1-4.849-4.849 4.828 4.828 0 0 1 4.849-4.848h33.4a4.828 4.828 0 0 1 4.849 4.848zM53.07 64.64h-8.619v-1.078h8.62v1.078zm1.078-3.233H27.212v-2.154h4.31c2.37 0 4.31-1.94 4.31-4.31h5.387c.646 0 1.077-.431 1.077-1.078v-8.62c0-.538.431-1.077 1.078-1.077h2.262v6.573c0 2.37 1.4 4.417 3.556 5.172l8.188 2.96v2.534h-3.232zm-1.365-19.329a7.955 7.955 0 0 0-1.005-.064h-5.064l2.054-2.198L56 38.893l-2.473 3.304c-.243-.05-.49-.09-.743-.119z"/>
        </g>
        <circle cx="50" cy="50" r="50" stroke="#AF834D" stroke-width="3"/>
    </g>
</svg>
