<?xml version="1.0" encoding="UTF-8"?>
<svg width="104px" height="104px" viewBox="0 0 104 104" version="1.1" xmlns="http://www.w3.org/2000/svg" xmlns:xlink="http://www.w3.org/1999/xlink">
    <!-- Generator: Sketch 45.1 (43504) - http://www.bohemiancoding.com/sketch -->
    <title>Group 5</title>
    <desc>Created with Sketch.</desc>
    <defs></defs>
    <g id="Page-1" stroke="none" stroke-width="1" fill="none" fill-rule="evenodd">
        <g id="Landing-v-2" transform="translate(-272.000000, -1130.000000)">
            <g id="Roadmap" transform="translate(250.000000, 1044.000000)">
                <g id="Group-5" transform="translate(24.000000, 88.000000)">
                    <g id="analytics" transform="translate(17.000000, 7.000000)" fill-rule="nonzero" fill="#AF834D">
                        <path d="M37.6628906,9.15791016 C37.0158691,9.06723633 36.4168945,9.5203125 36.3272461,10.1680664 C36.2373047,10.8159668 36.6896484,11.413916 37.3374023,11.5037109 C50.863623,13.3792969 61.6204102,24.136084 63.4959961,37.6623047 C63.5783203,38.2549805 64.0855957,38.6840332 64.6674316,38.6840332 C64.7217773,38.6840332 64.776416,38.6803711 64.8316406,38.6726074 C65.4793945,38.5828125 65.9317383,37.9848633 65.8417969,37.3369629 C63.8214844,22.7660156 52.2338379,11.1783691 37.6628906,9.15791016 Z" id="Shape"></path>
                        <path d="M74.9793457,37.7893066 C73.0940918,17.7897949 57.2102051,1.9059082 37.2106934,0.0206542969 C35.8907227,-0.103710938 34.5710449,0.337207031 33.5897461,1.23046875 C32.6066895,2.12519531 32.0428711,3.40078125 32.0428711,4.7296875 L32.0428711,8.85717773 C14.2797363,9.4059082 0,24.0268066 0,41.9206055 C0,60.1606934 14.8393066,75 33.0793945,75 C50.9731934,75 65.5940918,60.7202637 66.1426758,42.9571289 L70.270166,42.9571289 C71.5992188,42.9571289 72.8746582,42.3933105 73.7693848,41.4102539 C74.662793,40.4289551 75.1037109,39.1091309 74.9793457,37.7893066 Z M33.0793945,72.6316406 C16.1453613,72.6316406 2.36835938,58.8549316 2.36835938,41.9206055 C2.36835938,25.3338867 15.5871094,11.7761719 32.0427246,11.227002 L32.0427246,40.0010742 C32.0427246,41.6310059 33.3688477,42.9571289 34.9987793,42.9571289 L63.7728516,42.9571289 C63.2238281,59.4127441 49.6662598,72.6316406 33.0793945,72.6316406 Z M72.0178711,39.8160645 C71.564209,40.3144043 70.9437012,40.5887695 70.270166,40.5887695 L34.9987793,40.5887695 C34.6747559,40.5887695 34.411084,40.3250977 34.411084,40.0010742 L34.411084,4.7296875 C34.411084,4.05629883 34.6854492,3.43564453 35.1837891,2.98198242 C35.6235352,2.58178711 36.1765137,2.36791992 36.7606934,2.36791992 C36.8361328,2.36791992 36.9121582,2.37158203 36.9883301,2.37861328 C55.8569824,4.15722656 70.842627,19.1430176 72.6213867,38.011377 C72.684375,38.6787598 72.4699219,39.3194824 72.0178711,39.8160645 Z" id="Shape"></path>
                    </g>
                    <circle id="Oval" stroke="#AF834D" stroke-width="3" cx="50" cy="50" r="50"></circle>
                </g>
            </g>
        </g>
    </g>
</svg>