<?xml version="1.0" encoding="UTF-8"?>
<svg width="104px" height="104px" viewBox="0 0 104 104" version="1.1" xmlns="http://www.w3.org/2000/svg" xmlns:xlink="http://www.w3.org/1999/xlink">
    <!-- Generator: Sketch 45.1 (43504) - http://www.bohemiancoding.com/sketch -->
    <title>Group 7</title>
    <desc>Created with Sketch.</desc>
    <defs></defs>
    <g id="Page-1" stroke="none" stroke-width="1" fill="none" fill-rule="evenodd">
        <g id="Landing-v-2" transform="translate(-520.000000, -1130.000000)">
            <g id="Roadmap" transform="translate(250.000000, 1044.000000)">
                <g id="Group-7" transform="translate(272.000000, 88.000000)">
                    <g id="crane" transform="translate(25.000000, 14.000000)" stroke="#1F282F" stroke-width="0.5" fill="#AF834D" fill-rule="nonzero">
                        <path d="M8.67676768,53.872096 C8.60555556,53.872096 8.5375,53.8781566 8.4719697,53.8883838 C8.36174242,53.8781566 8.25050505,53.872096 8.13813131,53.872096 C6.09103535,53.872096 4.36704545,55.5959596 4.36704545,57.6431818 C4.36704545,59.6902778 6.09090909,61.4142677 8.13813131,61.4142677 C8.25050505,61.4142677 8.36174242,61.4082071 8.4719697,61.3979798 C8.53762626,61.4080808 8.60568182,61.4142677 8.67676768,61.4142677 L38.8450758,61.4142677 C38.9107323,61.4142677 38.9736111,61.4073232 39.034596,61.3968434 C39.1497475,61.4079545 39.2661616,61.4142677 39.3838384,61.4142677 C41.4309343,61.4142677 43.1549242,59.690404 43.1549242,57.6431818 C43.1549242,55.5960859 41.4310606,53.872096 39.3838384,53.872096 C39.2714646,53.872096 39.1602273,53.8781566 39.05,53.8883838 C38.9843434,53.8782828 38.9162879,53.872096 38.845202,53.872096 L8.67676768,53.872096 Z M6.52184343,57.6430556 C6.52184343,56.7810606 7.2760101,56.0268939 8.13800505,56.0268939 C8.94292929,56.0268939 9.65340909,56.6847222 9.74406566,57.4737374 C9.74457071,57.477904 9.74532828,57.4819444 9.74570707,57.4861111 C9.75126263,57.5380051 9.75416667,57.5902778 9.75416667,57.6430556 C9.75416667,57.6958333 9.75113636,57.7482323 9.74570707,57.8 C9.74532828,57.8041667 9.74444444,57.8082071 9.74406566,57.8123737 C9.65353535,58.6013889 8.94305556,59.2592172 8.13800505,59.2592172 C7.27613636,59.2592172 6.52184343,58.5050505 6.52184343,57.6430556 Z M11.9090909,57.6430556 C11.9090909,57.1042929 11.8013889,56.5656566 11.5858586,56.0268939 L35.9892677,56.0268939 C35.7487374,56.5195707 35.6128788,57.0685606 35.6128788,57.6430556 C35.6128788,58.2175505 35.7487374,58.7665404 35.9892677,59.2592172 L11.5858586,59.2592172 C11.8013889,58.7205808 11.9090909,58.1818182 11.9090909,57.6430556 Z M41,57.6430556 C41,58.5050505 40.2458333,59.2592172 39.3838384,59.2592172 C38.5789141,59.2592172 37.8684343,58.6013889 37.7777778,57.8123737 C37.7772727,57.8082071 37.7765152,57.8041667 37.7761364,57.8 C37.7705808,57.7481061 37.7676768,57.6958333 37.7676768,57.6430556 C37.7676768,57.5893939 37.7705808,57.5361111 37.7762626,57.4833333 C37.7762626,57.482702 37.7763889,57.482197 37.7765152,57.4815657 C37.8631313,56.6890152 38.5761364,56.0267677 39.3838384,56.0267677 C40.2458333,56.0268939 41,56.7811869 41,57.6430556 Z" id="Shape"></path>
                        <path d="M46.3872475,31.3535354 L46.3872475,30.1683081 L47.4646465,30.1683081 C48.1111111,30.1683081 48.5420455,29.7373737 48.5420455,29.0909091 C48.5420455,28.4444444 48.1111111,28.0135101 47.4646465,28.0135101 L46.3872475,28.0135101 L46.3872475,8.55164141 C48.4011364,8.19217172 49.942803,6.42285354 49.942803,4.30972222 C49.942803,1.93939394 48.0034091,0 45.6329545,0 C43.4977273,0 41.7130051,1.57386364 41.379798,3.61856061 L18.6819444,28.0135101 L18.3737374,28.0135101 C16.5420455,28.0135101 15.1414141,29.4141414 15.1414141,31.2458333 L15.1414141,38.7878788 L9.75416667,38.7878788 L4.47474747,38.7878788 C1.99659091,38.7878788 0.0571969697,40.8349747 0.0571969697,43.2054293 L0.0571969697,44.1751263 L0.0571969697,48.4848485 C0.0571969697,49.1313131 0.488131313,49.5622475 1.13459596,49.5622475 L17.2962121,49.5622475 L17.2962121,50.6396465 L7.06060606,50.6396465 C3.18181818,50.6396465 0.0571969697,53.7642677 0.0571969697,57.6430556 C0.0571969697,61.5218434 3.18181818,64.6464646 7.06060606,64.6464646 L40.4612374,64.6464646 C44.3400253,64.6464646 47.4646465,61.5218434 47.4646465,57.6430556 C47.4646465,53.7642677 44.3400253,50.6396465 40.4612374,50.6396465 L30.2255051,50.6396465 L30.2255051,49.5622475 L33.4578283,49.5622475 C34.1042929,49.5622475 34.5352273,49.1313131 34.5352273,48.4848485 L34.5352273,44.5910354 C34.6,44.4582071 34.6429293,44.3169192 34.6429293,44.175 L34.6429293,35.7709596 C34.6429293,33.185101 33.35,30.8147727 31.1950758,29.3063131 C31.007702,29.1813131 30.8151515,29.0665404 30.6186869,28.9597222 L34.0613636,24.3619949 C34.2453283,24.2282828 34.3753788,24.044697 34.4521465,23.8401515 L41.4708333,14.4664141 C41.677399,14.3248737 41.8198232,14.1223485 41.8978535,13.8962121 L44.2323232,10.7785354 L44.2323232,28.0133838 L43.1549242,28.0133838 C42.5084596,28.0133838 42.0775253,28.4443182 42.0775253,29.0907828 C42.0775253,29.7372475 42.5084596,30.1681818 43.1549242,30.1681818 L44.2323232,30.1681818 L44.2323232,32.3232323 C44.2323232,32.6464646 44.3400253,32.8619949 44.5555556,33.077399 C44.7710859,33.2929293 44.9864899,33.4006313 45.3097222,33.4006313 C46.4949495,33.4006313 47.4646465,34.3703283 47.4646465,35.5555556 C47.4646465,36.7407828 46.4949495,37.7104798 45.3097222,37.7104798 C44.1244949,37.7104798 43.154798,36.7407828 43.154798,35.5555556 C43.154798,34.9090909 42.7238636,34.4781566 42.077399,34.4781566 C41.4309343,34.4781566 41,34.9090909 41,35.5555556 C41,37.9258838 42.9393939,39.8652778 45.3097222,39.8652778 C47.6800505,39.8652778 49.6194444,37.9258838 49.6194444,35.5555556 C49.6195707,33.5084596 48.2188131,31.7844697 46.3872475,31.3535354 Z M39.7070707,12.6060606 L35.6532828,13.1050505 L39.4482323,9.04633838 L39.7070707,12.6060606 Z M32.2727273,22.5185606 L26.105303,23.3166667 L31.9026515,17.1162879 L32.2727273,22.5185606 Z M33.9965909,15.5151515 L38.4284091,14.969697 L34.3338384,20.4387626 L33.9965909,15.5151515 Z M41.4637626,6.8905303 L41.8619949,6.46464646 C41.9988636,6.66994949 42.1482323,6.86313131 42.3102273,7.04659091 C42.6607323,7.4709596 43.0905303,7.82752525 43.5763889,8.09343434 L41.7444444,10.540404 L41.4637626,6.8905303 Z M45.6329545,2.15492424 C46.8181818,2.15492424 47.7878788,3.12462121 47.7878788,4.30984848 C47.7878788,5.49507576 46.8181818,6.46477273 45.6329545,6.46477273 C45.2630051,6.46477273 44.9141414,6.37020202 44.6090909,6.20429293 C44.6068182,6.2030303 44.6045455,6.20164141 44.6022727,6.20037879 C44.5564394,6.17525253 44.5125,6.14734848 44.4686869,6.11906566 C43.9314394,5.75997475 43.5540404,5.1665404 43.4883838,4.5135101 C43.4820707,4.44646465 43.4780303,4.37878788 43.4780303,4.31010101 C43.4781566,3.12462121 44.4478535,2.15492424 45.6329545,2.15492424 Z M32.3756313,35.5174242 C32.3785354,35.6007576 32.3804293,35.685101 32.3804293,35.7710859 L32.3804293,42.5589646 L24.8383838,39.865404 C23.5454545,39.3266414 22.6834596,38.1415404 22.6834596,36.7407828 L22.6834596,30.1684343 L26.7777778,30.1684343 C29.040404,30.1684343 31.0875,31.5690657 31.9494949,33.7239899 C32.2305556,34.2861111 32.3484848,34.8483586 32.3744949,35.4813131 C32.3748737,35.4933081 32.3753788,35.505303 32.3756313,35.5174242 Z M8.67676768,40.942803 C8.67676768,42.1280303 7.70707071,43.0977273 6.52184343,43.0977273 L2.21717172,43.0977273 C2.21792929,43.0790404 2.21856061,43.0602273 2.21982323,43.0416667 C2.35277778,41.8823232 3.3084596,40.942803 4.47474747,40.942803 L8.67676768,40.942803 Z M45.3097222,57.6430556 C45.3097222,60.3366162 43.154798,62.4915404 40.4612374,62.4915404 L7.06060606,62.4915404 C4.36704545,62.4915404 2.21212121,60.3366162 2.21212121,57.6430556 C2.21212121,54.9494949 4.36704545,52.7945707 7.06060606,52.7945707 L18.3737374,52.7945707 L29.1481061,52.7945707 L40.4612374,52.7945707 C43.1549242,52.7945707 45.3097222,54.9494949 45.3097222,57.6430556 Z M28.0707071,50.6397727 L19.4511364,50.6397727 L19.4511364,49.5623737 L28.0707071,49.5623737 L28.0707071,50.6397727 Z M29.1481061,47.4074495 L18.3737374,47.4074495 L2.21212121,47.4074495 L2.21212121,45.2525253 L6.52184343,45.2525253 C8.89217172,45.2525253 10.8315657,43.3131313 10.8315657,40.942803 L16.2188131,40.942803 C16.8652778,40.942803 17.2962121,40.5118687 17.2962121,39.865404 L17.2962121,31.2458333 C17.2962121,30.7070707 17.7271465,30.1684343 18.3736111,30.1684343 L20.6362374,30.1684343 L20.6362374,36.7407828 C20.6362374,39.1111111 22.0368687,41.1583333 24.1917929,41.9125 L32.380303,44.8722222 L32.380303,47.4074495 L29.1481061,47.4074495 L29.1481061,47.4074495 Z M27.782702,28.0781566 C27.4532828,28.0362374 27.1180556,28.0135101 26.7777778,28.0135101 L26.6700758,28.0135101 L21.7138889,28.0135101 L23.7681818,25.8164141 L30.9991162,24.8933081 L28.5258838,28.1968434 C28.2834596,28.1465909 28.0353535,28.107702 27.782702,28.0781566 Z" id="Shape"></path>
                    </g>
                    <circle id="Oval" stroke="#AF834D" stroke-width="3" cx="50" cy="50" r="50"></circle>
                </g>
            </g>
        </g>
    </g>
</svg>