<svg xmlns="http://www.w3.org/2000/svg" width="104" height="104" viewBox="0 0 104 104">
    <g fill="none" fill-rule="evenodd" transform="translate(2 2)">
        <circle cx="50" cy="50" r="50" stroke="#AF834D" stroke-width="3"/>
        <g fill="#EFEFEF" fill-rule="nonzero">
            <path d="M53 32c-16.822 0-30 6.589-30 15v9c0 8.411 13.178 15 30 15s30-6.589 30-15v-9c0-8.411-13.178-15-30-15zm0 2c15.178 0 28 5.953 28 13S68.178 60 53 60s-28-5.953-28-13 12.822-13 28-13zm4.697 27.824l.186-.016c.632-.05 1.255-.111 1.872-.179.081-.009.165-.014.245-.023v6.964c-.982.122-1.983.219-3 .29v-6.99c.232-.016.466-.028.697-.046zM62 61.339l.147-.024.282-.047c.569-.091 1.13-.191 1.683-.299l.391-.076c.166-.034.332-.067.497-.102v6.907c-.971.221-1.974.413-3 .58v-6.939zm5-1.02c.391-.101.776-.206 1.156-.316.105-.03.211-.059.315-.09.178-.053.353-.107.528-.161v6.835c-.648.214-1.315.416-2 .605v-6.873H67zm4-1.241c.285-.106.563-.216.84-.326.074-.029.15-.057.223-.087.319-.13.63-.263.937-.399v6.727c-.637.305-1.304.596-2 .871v-6.786zm4-1.787l.106-.055.129-.068a24.56 24.56 0 0 0 1.536-.919c.076-.049.155-.097.23-.147v6.484c-.607.467-1.277.914-2 1.342v-6.637H75zm-46-1.188c.076.05.155.099.232.149.089.057.178.115.268.171.407.255.827.505 1.267.746l.122.064c.036.02.074.039.111.058v6.637a20.11 20.11 0 0 1-2-1.342v-6.483zm4 2.162c.308.136.619.27.939.4.071.029.145.056.217.085.279.111.558.222.844.328v6.786a32.224 32.224 0 0 1-2-.871v-6.728zm4 1.488c.176.054.351.109.53.162l.312.089c.381.109.766.215 1.158.316v6.874a42.013 42.013 0 0 1-2-.605v-6.836zm4 1.038l.498.103c.129.026.26.05.389.075a52.63 52.63 0 0 0 1.685.299l.28.047.148.024v6.94a50.614 50.614 0 0 1-3-.58v-6.908zm5 .814c.081.009.164.014.245.023.617.068 1.24.129 1.872.179l.186.016c.23.017.465.03.697.045v6.99a54.936 54.936 0 0 1-3-.29v-6.963zM25 56v-3.511c.031.041.07.079.102.12.23.293.473.582.737.865l.054.061c.283.3.591.592.912.879l.195.172v6.14c-1.283-1.473-2-3.068-2-4.726zm26 12.961v-6.996c.661.021 1.326.035 2 .035.674 0 1.339-.014 2-.035v6.996A57.52 57.52 0 0 1 53 69a57.52 57.52 0 0 1-2-.039zm30-16.472V56c0 1.658-.717 3.253-2 4.727v-6.14c.067-.058.131-.116.196-.175.32-.287.627-.578.91-.877l.056-.063c.264-.283.507-.571.736-.864.032-.04.071-.079.102-.119z"/>
            <path d="M38.97 56.108l-.265.096 3.45.723c.483.101.981.179 1.473.266.097.017.193.036.29.052a50.081 50.081 0 0 0 2.874.406c.359.04.717.08 1.08.112a53.35 53.35 0 0 0 2.05.151c.128.007.255.016.383.022a56.766 56.766 0 0 0 5.321.002c.135-.006.269-.015.404-.022a55.732 55.732 0 0 0 3.157-.263 54.806 54.806 0 0 0 2.9-.41l.182-.032c.481-.084.969-.159 1.44-.256l3.398-.701-.252-.094C74.271 54.031 79 50.386 79 47c0-5.192-11.119-11-26-11s-26 5.808-26 11c0 3.359 4.657 6.973 11.97 9.108zm9.96-5.109c-2.056-.67-3.228-1.829-3.484-3.443l-.108-.679-.673-.143c-.443-.094-.589-.252-.617-.255l.231-.75c.027-.087.3-.385.942-.568l.449-.128.19-.426a5.063 5.063 0 0 1 1.033-1.51c.186-.188.338-.327.462-.439.427-.39.695-.697.773-1.188a.325.325 0 0 0 .017.006c1.464.534 3.155.59 4.318.542.175-.007.354-.011.537-.011 4.036 0 6.304.831 7.138 2.614l.193.414.44.125c.647.183.922.481.95.57l.238.704c-.021.04-.187.208-.625.3l-.672.143-.108.679c-.256 1.615-1.429 2.773-3.484 3.443l-.777.253.24 2.082c.082.71.611 1.331 1.38 1.617l1.689.632c-.197.025-.392.051-.591.073-.656.073-1.32.133-1.991.182-.315.023-.623.052-.944.07a56.38 56.38 0 0 1-6.194-.003c-.323-.018-.634-.046-.95-.07a50.944 50.944 0 0 1-1.999-.186c-.201-.023-.399-.049-.597-.074l1.726-.623c.785-.284 1.324-.907 1.407-1.626l.239-2.073-.778-.254zM53 38c14.888 0 24 5.827 24 9 0 2.332-4.936 6.09-13.454 7.922l-4.933-1.844a.451.451 0 0 1-.103-.053l-.047-.409c2.524-1.045 3.547-2.699 3.932-4.12.574-.232 1.021-.592 1.288-1.046a1.924 1.924 0 0 0 .18-1.558l-.23-.749c-.23-.751-.923-1.392-1.888-1.765-1.719-3.011-5.784-3.371-8.745-3.371-.211 0-.417.005-.62.013-1.387.054-2.647-.094-3.549-.423-.502-.183-.722-.317-.808-.38-.432-.317-.991-.276-1.354-.093a1.09 1.09 0 0 0-.613.971c0 .225.017.49.066.786.011.065.021.122.027.17l-.143.129c-.143.13-.319.292-.535.509a7.083 7.083 0 0 0-1.242 1.698c-.952.375-1.634 1.011-1.862 1.754l-.23.749a1.924 1.924 0 0 0 .18 1.558c.267.454.713.814 1.287 1.046.385 1.421 1.408 3.075 3.932 4.12l-.046.399a.435.435 0 0 1-.108.056l-5.05 1.823C33.89 53.052 29 49.32 29 47c0-3.173 9.112-9 24-9zM76.705 73.4c-.014-.019-.036-.028-.051-.046a1.048 1.048 0 0 0-.153-.137c-.05-.038-.098-.076-.153-.103a.974.974 0 0 0-.13-.051l-.006-.003c-.012-.005-.025-.002-.038-.006a1.006 1.006 0 0 0-.202-.041c-.023-.001-.043-.013-.067-.013h-5a1 1 0 1 0 0 2h3.497c-1.283 2.987-3.355 6-6.497 6-2.158 0-4.291-1.932-6.007-5.439a1 1 0 0 0-1.797.879C62.754 81.862 65.81 83 67.905 83c2.419 0 5.717-1.278 8.242-7.011l1.958 2.611a.997.997 0 0 0 1.4.2 1 1 0 0 0 .2-1.4l-3-4zM28.295 32.6c.013.017.033.023.047.039.068.081.15.144.242.2.033.021.06.049.096.065.033.015.069.021.103.033.002.001.003.003.006.003.03.011.06.008.09.016.071.017.139.044.216.044h5a1 1 0 0 0 0-2h-3.497c1.283-2.987 3.355-6 6.497-6 2.158 0 4.291 1.932 6.007 5.439a1 1 0 0 0 1.797-.879C42.246 24.138 39.19 23 37.095 23c-2.419 0-5.717 1.278-8.242 7.011L26.895 27.4a1 1 0 1 0-1.6 1.2l3 4z"/>
        </g>
    </g>
</svg>
