<?xml version="1.0" encoding="UTF-8"?>
<svg width="104px" height="104px" viewBox="0 0 104 104" version="1.1" xmlns="http://www.w3.org/2000/svg" xmlns:xlink="http://www.w3.org/1999/xlink">
    <!-- Generator: Sketch 45.1 (43504) - http://www.bohemiancoding.com/sketch -->
    <title>business-partnership</title>
    <desc>Created with Sketch.</desc>
    <defs></defs>
    <g id="Page-1" stroke="none" stroke-width="1" fill="none" fill-rule="evenodd">
        <g id="Landing-v-2" transform="translate(-892.000000, -1130.000000)">
            <g id="Roadmap" transform="translate(250.000000, 1044.000000)">
                <g id="Group-10" transform="translate(644.000000, 88.000000)">
                    <g id="business-partnership">
                        <path d="M27.1652975,45.6971065 L26.0954103,44.6272193 C25.1576669,43.6878839 24.6402364,42.4412743 24.6402364,41.1134679 C24.6402364,38.4323816 26.7768265,36.2559892 29.4340314,36.1620556 C29.5263728,33.5637582 31.612016,31.4781151 34.2103134,31.3857736 C34.3026548,28.7874763 36.3882979,26.7018331 38.9865953,26.6094917 C39.0550554,24.6623607 40.2395733,23.2326603 41.9271929,22.481192 L39.9020494,20.6884941 L38.0361152,20.6884941 L21.4560484,36.8036695 L21.4560484,45.0379796 L24.6402364,48.2221676 L27.1652975,45.6971065 Z" id="Shape" fill-rule="nonzero"></path>
                        <path d="M29.4165184,12.9222597 L14.1547054,28.1840726 L19.8639544,33.8917296 L35.1257674,18.6299166 L29.4165184,12.9222597 Z M25.1051278,20.6884941 L28.2893158,17.5043062 L30.5405367,19.7555271 L27.3563487,22.939715 L25.1051278,20.6884941 Z" id="Shape" fill-rule="nonzero"></path>
                        <path d="M34.1928003,80.0624552 L39.9020494,74.3532062 L24.6402364,59.0929853 L18.9309874,64.8022343 L34.1928003,80.0624552 Z M32.1342228,70.0434078 L35.3184108,73.2275957 L33.0671899,75.4788166 L29.8830019,72.2946286 L32.1342228,70.0434078 Z" id="Shape" fill-rule="nonzero"></path>
                        <polygon id="Shape" fill-rule="nonzero" points="72.403056 43.1720454 55.8213971 27.0568701 50.7728671 27.0568701 72.403056 48.2205755"></polygon>
                        <path d="M58.733337,72.7627043 L64.4425861,78.4703612 L79.704399,63.2085483 L73.99515,57.5008913 L58.733337,72.7627043 Z M71.9365725,67.5199388 L69.6837595,65.2671258 L72.8679475,62.0829378 L75.1191684,64.3341587 L71.9365725,67.5199388 Z" id="Shape" fill-rule="nonzero"></path>
                        <path d="M38.9690823,63.2101404 L38.9690823,57.5008913 L29.4165184,47.9483274 L26.2323304,51.1325154 L26.2323304,56.1826375 L42.8123972,73.2275957 L47.8625193,73.2275957 L39.4339737,64.5681965 C39.1362522,64.2688829 38.9690823,63.6320453 38.9690823,63.2101404 Z" id="Shape" fill-rule="nonzero"></path>
                        <path d="M54.4235386,39.793622 L52.1707256,42.0448429 L40.4226641,30.2967814 C40.0851402,29.9608495 39.6377618,29.7745745 39.1601336,29.7745745 C38.1762195,29.7745745 37.3753962,30.5753978 37.3753962,31.5593119 C37.3753962,32.0369401 37.5616712,32.4843185 37.897603,32.8218424 L49.6456646,44.569904 L47.3944437,46.8211249 L35.6463821,35.0730633 C35.3088582,34.7371315 34.8614798,34.5508565 34.3838516,34.5508565 C33.3999375,34.5508565 32.5991142,35.3516798 32.5991142,36.3355939 C32.5991142,36.8132221 32.7853892,37.2606005 33.1213211,37.5981244 L44.8693826,49.3461859 L42.6181617,51.5974068 L30.8701002,39.8493453 C30.5325762,39.5134135 30.0851978,39.3271385 29.6075696,39.3271385 C28.6236556,39.3271385 27.8228323,40.1279617 27.8228323,41.1118758 C27.8228323,41.589504 28.0091073,42.0368824 28.3450391,42.3744063 L46.4614766,60.4908438 L44.2102557,62.7420647 L42.1516782,60.6850793 L42.1516782,62.5510134 L50.771275,71.6355017 L55.8213971,71.6355017 L72.4014639,54.5889514 L72.4014639,52.7230173 L45.8023497,26.123903 L45.1989461,25.5204994 C44.8614221,25.1845676 44.4140437,24.9982926 43.9364155,24.9982926 C42.9525014,24.9982926 42.1516782,25.7991158 42.1516782,26.7830299 C42.1516782,27.2606581 42.3379532,27.7080365 42.673885,28.0455605 L54.4235386,39.793622 Z" id="Shape" fill-rule="nonzero"></path>
                        <path d="M79.7028069,34.5524486 L64.440994,19.2906356 L58.7317449,24.9998847 L73.9935579,40.2601055 L79.7028069,34.5524486 Z M66.4995715,29.308091 L63.3153835,26.123903 L65.5666044,23.8726821 L68.7507924,27.0568701 L66.4995715,29.308091 Z" id="Shape" fill-rule="nonzero"></path>
                        <g id="Group" transform="translate(6.000000, 5.000000)" stroke="#1F282F" fill-rule="nonzero" stroke-width="0.5" fill="#AF834D">
                            <path d="M69.587244,47.0654824 C69.587244,46.6435775 69.418482,46.2375936 69.1207605,45.939872 L68.6542769,45.4733885 L69.1207605,45.0069049 C69.418482,44.7075913 69.587244,44.3031994 69.587244,43.8812945 L69.587244,38.1720454 L88.2258883,19.5334011 L85.9730753,17.2805881 L75.9540278,27.2996356 L60.6922149,12.0378226 L70.7112623,2.01877518 L68.4600414,0 L49.8213971,18.8726821 L44.1121481,18.8726821 C43.6902432,18.8726821 43.2842592,18.8074063 42.9865377,19.1067199 L42.5200541,19.4569806 L42.0535706,18.9331817 L41.450167,18.3011204 L35.6851946,12.7542649 C35.385881,12.4533592 34.9814891,12.5043062 34.5595842,12.5043062 L32.0345231,12.5043062 L19.7642548,0.00159209399 L17.5130339,2.13659013 L21.1637054,5.72835417 L5.90189241,20.9615094 L2.2512209,17.2965091 L0,19.5397695 L12.2702684,31.8036695 L12.2702684,40.6971065 C12.2702684,41.1190114 12.4374382,41.5234033 12.7367519,41.8227169 L17.0465503,46.1325154 L17.0465503,51.1826375 L0.00159209399,68.2275957 L2.25281299,70.4788166 L10.6797665,62.0534552 L25.9415794,77.3152682 L17.514626,85.7406296 L19.7658469,88.2242962 L36.8123972,71.4117837 L42.5216462,71.4117837 C42.9435511,71.4117837 43.347943,71.2446138 43.6472567,70.9453002 L44.7728671,69.8196897 L49.8229892,69.8196897 L68.4616335,88.2258883 L70.7128544,85.8584445 L60.693807,75.7804896 L75.9556199,60.4900189 L85.9730753,70.4947376 L88.2242962,68.2355562 L69.587244,49.5889514 L69.587244,47.0654824 Z M58.4425861,14.2906356 L73.704399,29.5524486 L67.99515,35.2601055 L52.733337,19.9982926 L58.4425861,14.2906356 Z M49.8213971,22.0568701 L66.4014639,38.1720454 L66.4014639,43.2221676 L44.7728671,22.0568701 L49.8213971,22.0568701 Z M66.403056,47.7246094 L66.403056,49.5905435 L49.8213971,66.6355017 L44.771275,66.6355017 L36.1516782,57.5494214 L36.1516782,55.6834872 L38.2102557,57.7420647 L40.4614766,55.4908438 L22.3450391,37.3759984 C22.0091073,37.0384745 21.8228323,36.589504 21.8228323,36.1134679 C21.8228323,35.1295538 22.6236556,34.3287306 23.6075696,34.3287306 C24.0851978,34.3287306 24.5325762,34.5150055 24.8701002,34.8509374 L36.6181617,46.5989989 L38.8693826,44.3461859 L27.1213211,32.5981244 C26.7853892,32.2621926 26.5991142,31.8132221 26.5991142,31.3371859 C26.5991142,30.3532719 27.3999375,29.5524486 28.3838516,29.5524486 C28.8614798,29.5524486 29.3088582,29.7387236 29.6463821,30.0746554 L41.3944437,41.8227169 L43.6456646,39.569904 L31.897603,27.8218424 C31.5616712,27.4859106 31.3753962,27.0369401 31.3753962,26.560904 C31.3753962,25.5769899 32.1762195,24.7761666 33.1601336,24.7761666 C33.6377618,24.7761666 34.0851402,24.9624416 34.4226641,25.2983735 L46.1707256,37.046435 L48.4219465,34.793622 L36.673885,23.0455605 C36.3379532,22.7096286 36.1516782,22.2606581 36.1516782,21.784622 C36.1516782,20.8007079 36.9525014,19.9998847 37.9364155,19.9998847 C38.4140437,19.9998847 38.8614221,20.1861597 39.1989461,20.5220915 L39.8023497,21.1254951 L66.403056,47.7246094 Z M23.4165184,7.92225968 L29.1257674,13.6315087 L13.8639544,28.8917296 L8.1547054,23.1824805 L23.4165184,7.92225968 Z M15.4560484,31.8036695 L32.0361152,15.6884941 L33.9020494,15.6884941 L35.9271929,17.481192 C34.2395733,18.2326603 33.0550554,19.7785836 32.9865953,21.7257145 C30.3882979,21.818056 28.3026548,23.8463837 28.2103134,26.443089 C25.612016,26.5354305 23.5263728,28.5924159 23.4340314,31.1907133 C20.7768265,31.2846468 18.6402364,33.4467105 18.6402364,36.1277968 C18.6402364,37.4556031 19.1576669,38.6958444 20.0954103,39.6335877 L21.1652975,40.7002907 L18.6402364,43.2237597 L15.4560484,40.0379796 L15.4560484,31.8036695 Z M28.1928003,75.0624552 L12.9309874,59.8006423 L18.6402364,54.0929853 L33.9020494,69.3547983 L28.1928003,75.0624552 Z M36.8123972,68.2275957 L20.2323304,51.1810454 L20.2323304,46.1309233 L23.4165184,42.9467353 L32.9690823,52.4992992 L32.9690823,58.2085483 C32.9690823,58.6304532 33.1362522,59.2688829 33.4355658,59.5666044 L41.8625193,68.2275957 C41.8625193,68.2275957 36.8123972,68.2275957 36.8123972,68.2275957 Z M58.4425861,73.4703612 L52.733337,67.7611122 L67.99515,52.5008913 L73.704399,58.2101404 L58.4425861,73.4703612 Z" id="Shape"></path>
                            <rect id="Rectangle-path" transform="translate(66.402446, 59.802017) rotate(-45.000000) translate(-66.402446, -59.802017) " x="64.1512469" y="58.2099381" width="4.50239862" height="3.18415744"></rect>
                            <rect id="Rectangle-path" transform="translate(26.598004, 67.760895) rotate(-45.000000) translate(-26.598004, -67.760895) " x="25.0059255" y="65.5096954" width="3.18415744" height="4.50239862"></rect>
                            <rect id="Rectangle-path" transform="translate(21.822689, 15.224193) rotate(-45.000000) translate(-21.822689, -15.224193) " x="19.5714895" y="13.6321139" width="4.50239862" height="3.18415744"></rect>
                            <rect id="Rectangle-path" transform="translate(60.033104, 21.592091) rotate(-45.000000) translate(-60.033104, -21.592091) " x="58.441025" y="19.3408916" width="3.18415744" height="4.50239862"></rect>
                        </g>
                        <circle id="Oval" stroke="#AF834D" stroke-width="3" cx="50" cy="50" r="50"></circle>
                    </g>
                </g>
            </g>
        </g>
    </g>
</svg>