<svg xmlns="http://www.w3.org/2000/svg" width="104" height="104" viewBox="0 0 104 104">
    <g fill="none" fill-rule="evenodd" transform="translate(2 2)">
        <g fill="#EFEFEF" fill-rule="nonzero">
            <path d="M51.586 13c-5.35 0-9.703 4.353-9.703 9.703s4.353 9.702 9.703 9.702 9.702-4.353 9.702-9.702c0-5.35-4.352-9.703-9.702-9.703zm-1.018 9.77h-1.221v-3.392h1.22v3.392zm0-5.428h-2.24c-.561 0-1.017.456-1.017 1.018v5.428c0 .562.456 1.018 1.018 1.018h2.239v2.307h-2.24a1.018 1.018 0 1 0 0 2.035h2.24V30.3c-3.748-.5-6.65-3.715-6.65-7.597 0-3.883 2.902-7.098 6.65-7.598v2.237zm2.035 7.464h1.222v2.307h-1.222v-2.307zm0 5.494v-1.152h2.24c.561 0 1.017-.455 1.017-1.018v-4.342c0-.562-.455-1.018-1.018-1.018h-2.239v-3.392h2.24a1.018 1.018 0 1 0 0-2.036h-2.24v-2.237c3.748.5 6.65 3.715 6.65 7.598 0 3.882-2.902 7.097-6.65 7.597z"/>
            <path stroke="#EFEFEF" stroke-width=".5" d="M70.037 60.1a1.018 1.018 0 0 0-1.356.48c-1.403 2.945-4.41 4.848-7.663 4.848a1.018 1.018 0 1 0 0 2.036c4.033 0 7.762-2.359 9.5-6.008a1.018 1.018 0 0 0-.48-1.357zM70.018 46.653c-.562 0-1.018.456-1.018 1.018v6.514a1.018 1.018 0 0 0 2.036 0v-6.514c0-.562-.456-1.018-1.018-1.018z"/>
            <path stroke="#EFEFEF" stroke-width=".5" d="M75.469 34.712a1.018 1.018 0 1 0 0 2.035 5.502 5.502 0 0 1 5.495 5.496 5.504 5.504 0 0 1-4.49 5.402c-.3-7.78-6.722-14.019-14.575-14.019H44.443l-8.38-9.428a1.018 1.018 0 0 0-1.78.676v8.994c-6.784 1.248-11.94 7.206-11.94 14.346v1.128l-3.493.582c-.49.082-.85.506-.85 1.004v8.685c0 .497.36.922.85 1.004l3.864.643c1.422 6.201 6.754 10.779 13.094 11.265l.657 4.601c.072.502.501.874 1.008.874h6.514c.506 0 .935-.372 1.007-.874l.65-4.554h9.712l.65 4.554c.072.502.501.874 1.008.874h6.513c.507 0 .936-.372 1.008-.874l.706-4.94a14.57 14.57 0 0 0 11.246-14.202v-8.28C80.159 49.205 83 46.05 83 42.244c0-4.153-3.378-7.532-7.531-7.532zM20.035 58.75V51.79l2.307-.384v6.578c0 .387.018.774.048 1.159l-2.355-.392zm16.284-31.2l5.401 6.075h-5.4v-6.075zm6.785 48.414h-4.748l-.485-3.393h5.717l-.484 3.393zm19.54 0h-4.748l-.484-3.393h4.487c.413 0 .826-.019 1.238-.054l-.493 3.447zm11.807-27.208v9.227a12.537 12.537 0 0 1-12.552 12.553H36.93l-.182-.003h-.033c-5.991-.101-11.098-4.45-12.143-10.34a12.674 12.674 0 0 1-.194-2.21v-9.77c0-6.921 5.63-12.552 12.552-12.552H61.9c6.921 0 12.552 5.63 12.552 12.552v.543z"/>
            <path stroke="#EFEFEF" stroke-width=".5" d="M32.045 44.482a4.28 4.28 0 0 0-4.275 4.275 4.28 4.28 0 0 0 4.275 4.274 4.28 4.28 0 0 0 4.274-4.274 4.28 4.28 0 0 0-4.274-4.275zm0 6.514a2.242 2.242 0 0 1-2.24-2.24 2.242 2.242 0 0 1 2.24-2.238 2.242 2.242 0 0 1 2.239 2.239 2.242 2.242 0 0 1-2.239 2.239zM60.27 40.14H41.815c-.562 0-1.018.455-1.018 1.018v5.428c0 .562.456 1.017 1.018 1.017H60.27c.562 0 1.018-.455 1.018-1.017v-5.428c0-.563-.456-1.018-1.018-1.018zm-1.017 5.428h-16.42v-3.393h16.42v3.393z"/>
        </g>
        <circle cx="50" cy="50" r="50" stroke="#AF834D" stroke-width="3"/>
    </g>
</svg>
