<svg xmlns="http://www.w3.org/2000/svg" width="104" height="104" viewBox="0 0 104 104">
    <g fill="none" fill-rule="evenodd" transform="translate(2 2)">
        <path d="M27.165 45.697l-1.07-1.07a4.94 4.94 0 0 1-1.455-3.514c0-2.68 2.137-4.857 4.794-4.95a4.956 4.956 0 0 1 4.776-4.777 4.956 4.956 0 0 1 4.777-4.777c.068-1.947 1.253-3.376 2.94-4.128l-2.025-1.793h-1.866l-16.58 16.116v8.234l3.184 3.184 2.525-2.525zM29.417 12.922L14.155 28.184l5.709 5.708L35.126 18.63l-5.71-5.708zm-4.312 7.766l3.184-3.184 2.252 2.252-3.185 3.184-2.25-2.252zM34.193 80.062l5.709-5.709-15.262-15.26-5.709 5.71 15.262 15.26zm-2.059-10.019l3.184 3.185-2.25 2.25-3.185-3.183 2.251-2.252zM72.403 43.172L55.821 27.057h-5.048l21.63 21.164zM58.733 72.763l5.71 5.707L79.704 63.21 73.995 57.5 58.733 72.763zm13.204-5.243l-2.253-2.253 3.184-3.184 2.251 2.251-3.182 3.186zM38.97 63.21V57.5l-9.553-9.552-3.185 3.185v5.05l16.58 17.045h5.05l-8.428-8.66c-.298-.3-.465-.936-.465-1.358z"/>
        <path d="M54.424 39.794l-2.253 2.25-11.748-11.747a1.787 1.787 0 0 0-2.525 2.525L49.646 44.57l-2.252 2.251-11.748-11.748a1.787 1.787 0 0 0-2.525 2.525L44.87 49.346l-2.25 2.251L30.87 39.85a1.787 1.787 0 0 0-2.525 2.525l18.116 18.117-2.25 2.251-2.06-2.057v1.866l8.62 9.085h5.05l16.58-17.047v-1.866l-26.599-26.6-.603-.603a1.787 1.787 0 0 0-2.525 2.525l11.75 11.749zM79.703 34.552L64.44 19.291 58.731 25l15.263 15.26 5.709-5.708zM66.5 29.308l-3.185-3.184 2.252-2.251 3.184 3.184-2.251 2.251z"/>
        <g fill="#EFEFEF" fill-rule="nonzero" stroke="#1F282F" stroke-width=".5">
            <path d="M75.587 52.065c0-.421-.169-.827-.466-1.125l-.467-.467.467-.466c.297-.3.466-.704.466-1.126v-5.709l18.639-18.639-2.253-2.252L81.954 32.3 66.692 17.038l10.02-10.02L74.46 5 55.821 23.873h-5.709c-.422 0-.828-.066-1.125.234l-.467.35-.466-.524-.604-.632-5.765-5.547c-.3-.3-.704-.25-1.125-.25h-2.525L25.765 5.002l-2.252 2.135 3.65 3.591-15.261 15.234-3.65-3.665L6 24.54l12.27 12.264v8.893c0 .422.167.826.467 1.126l4.31 4.31v5.05L6.002 73.228l2.25 2.25 8.428-8.425 15.262 15.262-8.427 8.426 2.25 2.483 17.047-16.812h5.71a1.59 1.59 0 0 0 1.125-.467l1.126-1.125h5.05l18.639 18.406 2.25-2.368L66.695 80.78l15.262-15.29 10.017 10.005 2.251-2.26L75.587 54.59v-2.524zM64.443 19.291l15.261 15.261-5.709 5.708-15.262-15.262 5.71-5.707zm-8.622 7.766l16.58 16.115v5.05L50.773 27.057h5.048zm16.582 25.668v1.866L55.821 71.636h-5.05l-8.62-9.087v-1.866l2.06 2.06 2.25-2.252-18.116-18.115a1.787 1.787 0 0 1 2.525-2.525l11.748 11.748 2.251-2.253-11.748-11.748a1.774 1.774 0 0 1-.522-1.26 1.787 1.787 0 0 1 3.047-1.263l11.748 11.748 2.252-2.253-11.748-11.748a1.774 1.774 0 0 1-.523-1.261 1.787 1.787 0 0 1 3.048-1.263L52.17 42.046l2.25-2.252-11.747-11.748a1.774 1.774 0 0 1-.522-1.261 1.787 1.787 0 0 1 3.047-1.263l.603.603 26.601 26.6zM29.417 12.922l5.709 5.71-15.262 15.26-5.71-5.71 15.263-15.26zm-7.961 23.882l16.58-16.116h1.866l2.025 1.793c-1.687.752-2.872 2.298-2.94 4.245-2.599.092-4.684 2.12-4.777 4.717-2.598.092-4.684 2.15-4.776 4.748-2.657.094-4.794 2.256-4.794 4.937a4.92 4.92 0 0 0 1.455 3.506l1.07 1.066-2.525 2.524-3.184-3.186v-8.234zm12.737 43.258L18.93 64.801l5.71-5.708 15.261 15.262-5.71 5.707zm8.62-6.834L26.232 56.18v-5.05l3.184-3.184 9.552 9.552v5.71c0 .421.167 1.06.467 1.358l8.427 8.66h-5.05zm21.63 5.242l-5.71-5.709 15.262-15.26 5.71 5.71-15.262 15.26z"/>
            <path d="M69.685 65.268l3.183-3.183 2.252 2.251-3.184 3.184zM29.88 72.295l2.252-2.251 3.183 3.183-2.25 2.251zM25.105 20.69l3.183-3.183 2.251 2.252-3.183 3.183zM63.316 26.126l2.251-2.251 3.183 3.183L66.5 29.31z"/>
        </g>
        <circle cx="50" cy="50" r="50" stroke="#AF834D" stroke-width="3"/>
    </g>
</svg>
