<?xml version="1.0" encoding="UTF-8"?>
<svg width="104px" height="104px" viewBox="0 0 104 104" version="1.1" xmlns="http://www.w3.org/2000/svg" xmlns:xlink="http://www.w3.org/1999/xlink">
    <!-- Generator: Sketch 45.1 (43504) - http://www.bohemiancoding.com/sketch -->
    <title>Group 9</title>
    <desc>Created with Sketch.</desc>
    <defs></defs>
    <g id="Page-1" stroke="none" stroke-width="1" fill="none" fill-rule="evenodd">
        <g id="Landing-v-2" transform="translate(-768.000000, -1130.000000)">
            <g id="Roadmap" transform="translate(250.000000, 1044.000000)">
                <g id="Group-9" transform="translate(520.000000, 88.000000)">
                    <circle id="Oval" stroke="#AF834D" stroke-width="3" cx="50" cy="50" r="50"></circle>
                    <g id="coin-2" transform="translate(23.000000, 23.000000)" stroke="#1F282F" stroke-width="0.5" fill="#AF834D" fill-rule="nonzero">
                        <path d="M30,9 C13.178,9 0,15.589 0,24 L0,33 C0,41.411 13.178,48 30,48 C46.822,48 60,41.411 60,33 L60,24 C60,15.589 46.822,9 30,9 Z M30,11 C45.178,11 58,16.953 58,24 C58,31.047 45.178,37 30,37 C14.822,37 2,31.047 2,24 C2,16.953 14.822,11 30,11 Z M34.697,38.824 C34.76,38.819 34.82,38.813 34.883,38.808 C35.515,38.758 36.138,38.697 36.755,38.629 C36.836,38.62 36.92,38.615 37,38.606 L37,45.57 C36.018,45.692 35.017,45.789 34,45.86 L34,38.87 C34.232,38.854 34.466,38.842 34.697,38.824 Z M39,38.339 C39.05,38.331 39.098,38.323 39.147,38.315 C39.242,38.3 39.334,38.283 39.429,38.268 C39.998,38.177 40.559,38.077 41.112,37.969 C41.242,37.944 41.374,37.919 41.503,37.893 C41.669,37.859 41.835,37.826 42,37.791 L42,44.698 C41.029,44.919 40.026,45.111 39,45.278 L39,38.339 L39,38.339 Z M44,37.319 C44.391,37.218 44.776,37.113 45.156,37.003 C45.261,36.973 45.367,36.944 45.471,36.913 C45.649,36.86 45.824,36.806 45.999,36.752 L45.999,43.587 C45.351,43.801 44.684,44.003 43.999,44.192 L43.999,37.319 L44,37.319 Z M48,36.078 C48.285,35.972 48.563,35.862 48.84,35.752 C48.914,35.723 48.99,35.695 49.063,35.665 C49.382,35.535 49.693,35.402 50,35.266 L50,41.993 C49.363,42.298 48.696,42.589 48,42.864 L48,36.078 Z M52,34.291 C52.035,34.272 52.071,34.254 52.106,34.236 C52.148,34.213 52.193,34.191 52.235,34.168 C52.673,33.928 53.092,33.679 53.498,33.424 C53.59,33.366 53.681,33.308 53.771,33.249 C53.847,33.2 53.926,33.152 54.001,33.102 L54.001,39.586 C53.394,40.053 52.724,40.5 52.001,40.928 L52.001,34.291 L52,34.291 Z M6,33.103 C6.076,33.153 6.155,33.202 6.232,33.252 C6.321,33.309 6.41,33.367 6.5,33.423 C6.907,33.678 7.327,33.928 7.767,34.169 C7.807,34.191 7.849,34.211 7.889,34.233 C7.925,34.253 7.963,34.272 8,34.291 L8,40.928 C7.277,40.5 6.607,40.052 6,39.586 L6,33.103 L6,33.103 Z M10,35.265 C10.308,35.401 10.619,35.535 10.939,35.665 C11.01,35.694 11.084,35.721 11.156,35.75 C11.435,35.861 11.714,35.972 12,36.078 L12,42.864 C11.304,42.588 10.637,42.297 10,41.993 L10,35.265 Z M14,36.753 C14.176,36.807 14.351,36.862 14.53,36.915 C14.633,36.945 14.738,36.974 14.842,37.004 C15.223,37.113 15.608,37.219 16,37.32 L16,44.194 C15.315,44.005 14.648,43.803 14,43.589 L14,36.753 L14,36.753 Z M18,37.791 C18.165,37.826 18.331,37.86 18.498,37.894 C18.627,37.92 18.758,37.944 18.887,37.969 C19.441,38.076 20.002,38.177 20.572,38.268 C20.666,38.283 20.758,38.3 20.852,38.315 C20.901,38.323 20.95,38.331 21,38.339 L21,45.279 C19.974,45.111 18.971,44.919 18,44.699 L18,37.791 Z M23,38.605 C23.081,38.614 23.164,38.619 23.245,38.628 C23.862,38.696 24.485,38.757 25.117,38.807 C25.179,38.812 25.24,38.818 25.303,38.823 C25.533,38.84 25.768,38.853 26,38.868 L26,45.858 C24.983,45.787 23.982,45.691 23,45.568 L23,38.605 Z M2,33 L2,29.489 C2.031,29.53 2.07,29.568 2.102,29.609 C2.332,29.902 2.575,30.191 2.839,30.474 C2.858,30.494 2.874,30.515 2.893,30.535 C3.176,30.835 3.484,31.127 3.805,31.414 C3.87,31.471 3.934,31.529 4,31.586 L4,37.726 C2.717,36.253 2,34.658 2,33 Z M28,45.961 L28,38.965 C28.661,38.986 29.326,39 30,39 C30.674,39 31.339,38.986 32,38.965 L32,45.961 C31.338,45.984 30.672,46 30,46 C29.328,46 28.662,45.984 28,45.961 Z M58,29.489 L58,33 C58,34.658 57.283,36.253 56,37.727 L56,31.587 C56.067,31.529 56.131,31.471 56.196,31.412 C56.516,31.125 56.823,30.834 57.106,30.535 C57.126,30.514 57.143,30.493 57.162,30.472 C57.426,30.189 57.669,29.901 57.898,29.608 C57.93,29.568 57.969,29.529 58,29.489 Z" id="Shape"></path>
                        <path d="M15.97,33.108 L15.705,33.204 L19.155,33.927 C19.638,34.028 20.136,34.106 20.628,34.193 C20.725,34.21 20.821,34.229 20.918,34.245 C21.476,34.34 22.039,34.426 22.608,34.503 C22.998,34.556 23.393,34.606 23.792,34.651 C24.151,34.691 24.509,34.731 24.872,34.763 C25.545,34.826 26.229,34.876 26.922,34.914 C27.05,34.921 27.177,34.93 27.305,34.936 C28.189,34.978 29.087,35 30,35 C30.889,35 31.765,34.978 32.626,34.938 C32.761,34.932 32.895,34.923 33.03,34.916 C33.696,34.88 34.352,34.832 34.999,34.774 C35.398,34.739 35.793,34.697 36.187,34.653 C36.537,34.613 36.884,34.57 37.228,34.524 C37.855,34.441 38.474,34.348 39.087,34.243 C39.148,34.233 39.208,34.221 39.269,34.211 C39.75,34.127 40.238,34.052 40.709,33.955 L44.107,33.254 L43.855,33.16 C51.271,31.031 56,27.386 56,24 C56,18.808 44.881,13 30,13 C15.119,13 4,18.808 4,24 C4,27.359 8.657,30.973 15.97,33.108 Z M25.93,27.999 C23.874,27.329 22.702,26.17 22.446,24.556 L22.338,23.877 L21.665,23.734 C21.222,23.64 21.076,23.482 21.048,23.479 L21.279,22.729 C21.306,22.642 21.579,22.344 22.221,22.161 L22.67,22.033 L22.86,21.607 C23.111,21.043 23.459,20.535 23.893,20.097 C24.079,19.909 24.231,19.77 24.355,19.658 C24.782,19.268 25.05,18.961 25.128,18.47 C25.133,18.472 25.139,18.474 25.145,18.476 C26.609,19.01 28.3,19.066 29.463,19.018 C29.638,19.011 29.817,19.007 30,19.007 C34.036,19.007 36.304,19.838 37.138,21.621 L37.331,22.035 L37.771,22.16 C38.418,22.343 38.693,22.641 38.721,22.73 L38.959,23.434 C38.938,23.474 38.772,23.642 38.334,23.734 L37.662,23.877 L37.554,24.556 C37.298,26.171 36.125,27.329 34.07,27.999 L33.293,28.252 L33.533,30.334 C33.615,31.044 34.144,31.665 34.913,31.951 L36.602,32.583 C36.405,32.608 36.21,32.634 36.011,32.656 C35.355,32.729 34.691,32.789 34.02,32.838 C33.705,32.861 33.397,32.89 33.076,32.908 C31.024,33.021 28.933,33.019 26.882,32.905 C26.559,32.887 26.248,32.859 25.932,32.835 C25.258,32.785 24.591,32.724 23.933,32.649 C23.732,32.626 23.534,32.6 23.336,32.575 L25.062,31.952 C25.847,31.668 26.386,31.045 26.469,30.326 L26.708,28.253 L25.93,27.999 Z M30,15 C44.888,15 54,20.827 54,24 C54,26.332 49.064,30.09 40.546,31.922 L35.613,30.078 C35.565,30.06 35.531,30.04 35.51,30.025 L35.463,29.616 C37.987,28.571 39.01,26.917 39.395,25.496 C39.969,25.264 40.416,24.904 40.683,24.45 C40.962,23.975 41.026,23.422 40.863,22.892 L40.633,22.143 C40.403,21.392 39.71,20.751 38.745,20.378 C37.026,17.367 32.961,17.007 30,17.007 C29.789,17.007 29.583,17.012 29.38,17.02 C27.993,17.074 26.733,16.926 25.831,16.597 C25.329,16.414 25.109,16.28 25.023,16.217 C24.591,15.9 24.032,15.941 23.669,16.124 C23.291,16.315 23.056,16.687 23.056,17.095 C23.056,17.32 23.073,17.585 23.122,17.881 C23.133,17.946 23.143,18.003 23.149,18.051 C23.108,18.089 23.061,18.131 23.006,18.18 C22.863,18.31 22.687,18.472 22.471,18.689 C21.973,19.193 21.556,19.762 21.229,20.387 C20.277,20.762 19.595,21.398 19.367,22.141 L19.137,22.89 C18.974,23.42 19.038,23.973 19.317,24.448 C19.584,24.902 20.03,25.262 20.604,25.494 C20.989,26.915 22.012,28.569 24.536,29.614 L24.49,30.013 C24.468,30.029 24.432,30.051 24.382,30.069 L19.332,31.892 C10.89,30.052 6,26.32 6,24 C6,20.827 15.112,15 30,15 Z" id="Shape"></path>
                        <path d="M53.705,50.4 C53.691,50.381 53.669,50.372 53.654,50.354 C53.608,50.301 53.556,50.26 53.501,50.217 C53.451,50.179 53.403,50.141 53.348,50.114 C53.306,50.093 53.263,50.078 53.218,50.063 C53.216,50.062 53.214,50.06 53.212,50.06 C53.2,50.055 53.187,50.058 53.174,50.054 C53.106,50.035 53.042,50.018 52.972,50.013 C52.949,50.012 52.929,50 52.905,50 L47.905,50 C47.352,50 46.905,50.448 46.905,51 C46.905,51.552 47.352,52 47.905,52 L51.402,52 C50.119,54.987 48.047,58 44.905,58 C42.747,58 40.614,56.068 38.898,52.561 C38.655,52.065 38.057,51.861 37.56,52.102 C37.064,52.345 36.858,52.944 37.101,53.44 C39.754,58.862 42.81,60 44.905,60 C47.324,60 50.622,58.722 53.147,52.989 L55.105,55.6 C55.301,55.862 55.601,56 55.906,56 C56.115,56 56.325,55.935 56.505,55.8 C56.947,55.469 57.037,54.842 56.705,54.4 L53.705,50.4 Z" id="Shape"></path>
                        <path d="M5.295,9.6 C5.308,9.617 5.328,9.623 5.342,9.639 C5.41,9.72 5.492,9.783 5.584,9.839 C5.617,9.86 5.644,9.888 5.68,9.904 C5.713,9.919 5.749,9.925 5.783,9.937 C5.785,9.938 5.786,9.94 5.789,9.94 C5.819,9.951 5.849,9.948 5.879,9.956 C5.95,9.973 6.018,10 6.095,10 L6.126,10 C6.127,10 6.128,10 6.128,10 C6.13,10 6.131,10 6.132,10 L11.095,10 C11.647,10 12.095,9.552 12.095,9 C12.095,8.448 11.647,8 11.095,8 L7.598,8 C8.881,5.013 10.953,2 14.095,2 C16.253,2 18.386,3.932 20.102,7.439 C20.345,7.935 20.943,8.14 21.44,7.898 C21.936,7.655 22.142,7.056 21.899,6.56 C19.246,1.138 16.19,0 14.095,0 C11.676,0 8.378,1.278 5.853,7.011 L3.895,4.4 C3.564,3.959 2.939,3.868 2.495,4.2 C2.053,4.531 1.964,5.158 2.295,5.6 L5.295,9.6 Z" id="Shape"></path>
                    </g>
                </g>
            </g>
        </g>
    </g>
</svg>