<svg xmlns="http://www.w3.org/2000/svg" width="104" height="104" viewBox="0 0 104 104">
    <g fill="none" fill-rule="evenodd">
        <path fill="#EFEFEF" fill-rule="nonzero" stroke="#1F282F" d="M65.796 66.919c-.774-.604-1.897-.906-3.369-.906H47.651c.471-.717.934-1.33 1.387-1.84 1.057-1.283 3.005-3.085 5.845-5.407 2.84-2.32 4.864-4.024 6.072-5.109 1.208-1.085 2.392-2.585 3.553-4.5 1.16-1.916 1.74-4.044 1.74-6.384 0-1.49-.278-2.93-.834-4.317a11.53 11.53 0 0 0-2.336-3.666 11.125 11.125 0 0 0-3.482-2.49c-2.038-.907-4.5-1.36-7.388-1.36-2.396 0-4.486.354-6.27 1.062-1.783.708-3.255 1.637-4.416 2.788-1.16 1.152-2.033 2.435-2.618 3.85s-.877 2.774-.877 4.076c0 1.076.31 1.925.934 2.548.622.623 1.405.934 2.35.934 1.075 0 1.89-.34 2.448-1.019.556-.68 1.056-1.65 1.5-2.915.443-1.265.76-2.039.948-2.322 1.416-2.17 3.359-3.255 5.832-3.255 1.17 0 2.25.265 3.24.793a5.987 5.987 0 0 1 2.35 2.222c.576.953.863 2.033.863 3.24 0 1.114-.269 2.251-.806 3.412-.538 1.16-1.322 2.293-2.35 3.397-1.029 1.104-2.317 2.203-3.864 3.297-.868.585-2.312 1.807-4.33 3.666-2.02 1.86-4.285 4.09-6.794 6.695-.604.642-1.16 1.524-1.67 2.646-.51 1.124-.765 2.024-.765 2.704 0 1.057.397 1.977 1.19 2.76.792.783 1.896 1.174 3.311 1.174h20.834c1.246 0 2.175-.32 2.788-.962.613-.641.92-1.425.92-2.35 0-1.037-.387-1.858-1.16-2.462z"/>
        <circle cx="50" cy="50" r="50" stroke="#AF834D" stroke-width="3" transform="translate(2 2)"/>
    </g>
</svg>
