<svg xmlns="http://www.w3.org/2000/svg" width="25" height="28" viewBox="0 0 25 28">
    <g fill="#AF834D" fill-rule="nonzero">
        <path stroke="#1F282F" d="M22.177 23.75H20.55v-6.5c0-.212-.043-.422-.125-.62-.083-.2-.202-.38-.352-.53l-2.1-2.1 2.1-2.1c.15-.15.27-.33.352-.53a1.62 1.62 0 0 0 .125-.62v-6.5h1.626a1.625 1.625 0 1 0 0-3.25H2.675a1.625 1.625 0 1 0 0 3.25h1.626v6.5c0 .212.043.422.126.62.082.2.201.38.352.53l2.1 2.1-2.1 2.1c-.15.15-.27.33-.352.53a1.622 1.622 0 0 0-.126.62v6.5H2.675a1.625 1.625 0 1 0 0 3.25h19.502a1.625 1.625 0 1 0 0-3.25zM10.325 12.851L7.55 10.077V4.25h9.75v5.827l-2.774 2.774a1.624 1.624 0 0 0 0 2.298l2.774 2.774V20.5l-4.875-4.875L7.55 20.5v-2.577l2.774-2.774a1.624 1.624 0 0 0 0-2.298z"/>
        <path d="M15.677 9.125h-6.5l3.25 3.25z"/>
    </g>
</svg>
