<svg xmlns="http://www.w3.org/2000/svg" width="30" height="25" viewBox="0 0 30 25">
    <path fill="#FFF" fill-rule="nonzero" d="M1.06 11.989l6.596 2.462 2.553 8.21a.776.776 0 0 0 1.233.372l3.677-2.998c.385-.314.934-.33 1.337-.037l6.631 4.815a.777.777 0 0 0 1.218-.47L29.163.975a.778.778 0 0 0-1.04-.883L1.052 10.535c-.669.257-.663 1.203.007 1.454zm8.737 1.151L22.688 5.2c.232-.142.47.172.272.356l-10.64 9.89a2.205 2.205 0 0 0-.683 1.32l-.362 2.685c-.048.358-.552.394-.65.047L9.23 14.601a1.298 1.298 0 0 1 .567-1.46z"/>
</svg>
