<svg xmlns="http://www.w3.org/2000/svg" width="31" height="25" viewBox="0 0 31 25">
    <path fill="#FFF" fill-rule="nonzero" d="M30.723 2.975c-1.13.5-2.344.84-3.619.992a6.329 6.329 0 0 0 2.77-3.484 12.706 12.706 0 0 1-4.004 1.53 6.285 6.285 0 0 0-4.6-1.99 6.303 6.303 0 0 0-6.14 7.736A17.893 17.893 0 0 1 2.14 1.174a6.255 6.255 0 0 0-.852 3.168 6.3 6.3 0 0 0 2.803 5.245 6.303 6.303 0 0 1-2.855-.791v.078c0 3.053 2.174 5.6 5.055 6.18a6.384 6.384 0 0 1-1.66.221c-.407 0-.8-.04-1.187-.117a6.306 6.306 0 0 0 5.886 4.377 12.645 12.645 0 0 1-7.827 2.694c-.508 0-1.01-.031-1.503-.087a17.815 17.815 0 0 0 9.66 2.836c11.594 0 17.932-9.603 17.932-17.931l-.021-.816a12.586 12.586 0 0 0 3.152-3.256z"/>
</svg>
