<svg xmlns="http://www.w3.org/2000/svg" width="39" height="22" viewBox="0 0 39 22">
    <path fill="#FFF" fill-rule="nonzero" d="M38.632 19.868c-.046-.1-.09-.184-.13-.25-.67-1.205-1.948-2.684-3.835-4.438l-.04-.04-.02-.02-.02-.02h-.02c-.857-.816-1.4-1.365-1.626-1.646-.416-.536-.509-1.078-.282-1.627.16-.415.763-1.29 1.807-2.63.55-.709.984-1.277 1.305-1.706 2.316-3.078 3.32-5.046 3.012-5.902l-.12-.2c-.08-.121-.288-.231-.622-.332-.335-.1-.763-.117-1.285-.05l-5.782.04c-.094-.033-.228-.03-.402.01l-.261.06-.1.05-.08.061a.892.892 0 0 0-.221.21c-.08.1-.147.218-.2.352a32.782 32.782 0 0 1-2.15 4.517c-.494.83-.95 1.55-1.365 2.159-.414.608-.762 1.057-1.043 1.344a7.282 7.282 0 0 1-.763.693c-.228.174-.402.248-.522.22-.12-.026-.234-.053-.342-.08a1.335 1.335 0 0 1-.451-.491 2.203 2.203 0 0 1-.231-.783 8.632 8.632 0 0 1-.07-.813c-.007-.228-.004-.55.01-.964.014-.415.02-.696.02-.843 0-.51.01-1.061.03-1.657.02-.595.036-1.067.05-1.415.014-.348.02-.716.02-1.104a4.64 4.64 0 0 0-.07-.914 3.125 3.125 0 0 0-.21-.642 1.082 1.082 0 0 0-.412-.482 2.32 2.32 0 0 0-.673-.271c-.709-.16-1.612-.248-2.71-.261-2.49-.027-4.089.134-4.798.482a2.705 2.705 0 0 0-.763.602c-.241.295-.275.455-.1.482.802.12 1.37.408 1.706.863l.12.241c.094.174.188.482.281.924.094.441.154.93.181 1.465.067.977.067 1.813 0 2.51-.067.696-.13 1.237-.19 1.626-.061.388-.151.702-.272.943-.12.241-.2.388-.24.442a.346.346 0 0 1-.101.1c-.174.067-.355.1-.542.1-.188 0-.415-.093-.683-.28a4.816 4.816 0 0 1-.833-.774c-.288-.328-.612-.786-.974-1.375a23.998 23.998 0 0 1-1.124-2.088l-.321-.582c-.2-.375-.475-.92-.823-1.636a31.548 31.548 0 0 1-.924-2.078 1.323 1.323 0 0 0-.481-.643l-.1-.06a1.374 1.374 0 0 0-.322-.17 2.13 2.13 0 0 0-.462-.131l-5.5.04c-.563 0-.944.127-1.145.382l-.08.12c-.04.067-.06.174-.06.321 0 .148.04.328.12.542a66.256 66.256 0 0 0 2.62 5.461c.943 1.753 1.763 3.166 2.459 4.236a50.017 50.017 0 0 0 2.128 3.031c.723.95 1.201 1.56 1.435 1.827.235.268.419.469.552.603l.502.481c.322.322.793.706 1.416 1.155.622.448 1.311.89 2.068 1.325.756.435 1.636.79 2.64 1.064a9.129 9.129 0 0 0 2.931.331h2.309c.468-.04.823-.187 1.064-.441l.08-.1a1.33 1.33 0 0 0 .15-.372 2.04 2.04 0 0 0 .07-.552 6.615 6.615 0 0 1 .13-1.556c.1-.461.215-.81.342-1.044.128-.234.272-.431.432-.592.16-.16.275-.257.342-.29a1.31 1.31 0 0 1 .16-.071c.321-.107.7-.003 1.135.311.435.315.843.703 1.224 1.165.382.462.84.98 1.375 1.556.536.575 1.004 1.003 1.406 1.285l.401.24c.268.161.616.308 1.045.442.427.134.802.167 1.124.1l5.139-.08c.508 0 .904-.084 1.184-.25.281-.168.448-.352.502-.553.054-.2.057-.428.01-.683a2.52 2.52 0 0 0-.14-.532z"/>
</svg>
