<svg xmlns="http://www.w3.org/2000/svg" xmlns:xlink="http://www.w3.org/1999/xlink" width="51" height="22" viewBox="0 0 51 22">
    <defs>
        <path id="a" d="M.006.012v13.705h12.021V.012H.006z"/>
        <path id="c" d="M29.97 10.567v10.475H.041V.092h29.93v10.475z"/>
    </defs>
    <g fill="none" fill-rule="evenodd">
        <path fill="#FFFFFE" d="M18.742 17.05h-1.904v-1.102c-.722.828-1.334 1.245-2 1.245-.586 0-.993-.276-1.196-.774-.124-.304-.212-.777-.212-1.473V6.928h1.905v8.218c.044.282.164.384.406.384.364 0 .694-.316 1.097-.885V6.928h1.904V17.05"/>
        <g transform="translate(0 3.508)">
            <mask id="b" fill="#fff">
                <use xlink:href="#a"/>
            </mask>
            <path fill="#FFFFFE" d="M10.123 10.536c.1 1.002-.21 1.5-.802 1.5-.591 0-.902-.498-.802-1.5v-4.01c-.1-1.002.21-1.471.802-1.471.591 0 .903.47.803 1.472l-.001 4.009zm1.904-3.809c0-1.082-.217-1.894-.601-2.405-.507-.693-1.303-.976-2.105-.976-.907 0-1.598.283-2.105.976-.39.511-.6 1.332-.6 2.414l-.001 3.6c0 1.075.186 1.818.576 2.325.507.69 1.328 1.056 2.13 1.056.802 0 1.638-.366 2.145-1.056.384-.507.561-1.25.561-2.326V6.727zM4.51 8.03v5.513H2.506V8.03S.428 1.272 0 .012h2.105l1.406 5.28 1.4-5.28h2.105L4.51 8.03" mask="url(#b)"/>
        </g>
        <path fill="#FFFFFE" d="M38.33 8.538c-.3 0-.642.157-.945.457l-.002 6.078c.303.304.647.457.946.457.523 0 .76-.384.76-1.386v-4.31c0-1.002-.237-1.296-.76-1.296"/>
        <g transform="translate(20.246)">
            <mask id="d" fill="#fff">
                <use xlink:href="#c"/>
            </mask>
            <path fill="#FFFFFE" d="M25.558 9.742c0-.926-.24-1.204-.841-1.204-.606 0-.863.255-.863 1.192v1.108l1.704-.002V9.742" mask="url(#d)"/>
            <path fill="#FFFFFE" d="M24.734 15.53c.446 0 .707-.243.81-.728.017-.099.014-.531.014-1.26h1.904v.285c0 .584-.048.998-.064 1.18a2.584 2.584 0 0 1-.425 1.087c-.502.727-1.246 1.086-2.194 1.086-.95 0-1.672-.342-2.197-1.026-.385-.501-.632-1.246-.632-2.31v-3.509c0-1.07.225-1.898.61-2.404.525-.685 1.247-1.048 2.174-1.048.91 0 1.633.363 2.141 1.048.38.506.59 1.29.59 2.36v2.049h-3.61v1.8c-.007.925.256 1.39.879 1.39zm-3.987-1.486c0 .926-.08 1.58-.2 2.004-.243.745-.77 1.132-1.493 1.132-.645 0-1.306-.388-1.913-1.139l-.002 1.01h-1.804V3.62h1.804l-.002 4.378c.586-.721 1.25-1.132 1.917-1.132.722 0 1.208.417 1.45 1.168.121.402.243 1.051.243 2v4.009zm-6.916 3.007h-1.904v-1.103c-.722.828-1.334 1.245-2.001 1.245-.585 0-.992-.276-1.195-.774-.124-.304-.212-.777-.212-1.473V7.028h1.905v8.118c.044.282.163.384.406.384.364 0 .694-.316 1.097-.885V7.028h1.904V17.05zm-7.216 0H4.61V5.524H2.506V3.622L8.82 3.62v1.904H6.615v11.527zM29.671 4.613s-.292-2.053-1.19-2.957C27.345.469 26.069.463 25.484.394 21.295.093 15.013.093 15.013.093h-.014s-6.282 0-10.47.3C3.944.464 2.67.47 1.53 1.657.633 2.56.34 4.613.34 4.613S.042 7.024.042 9.435v2.26c0 2.412.3 4.823.3 4.823s.292 2.053 1.19 2.957c1.138 1.187 2.633 1.149 3.3 1.273 2.394.229 10.175.3 10.175.3s6.289-.01 10.477-.31c.585-.07 1.86-.076 2.999-1.263.897-.904 1.19-2.957 1.19-2.957s.298-2.411.298-4.822v-2.26c0-2.412-.299-4.823-.299-4.823z" mask="url(#d)"/>
        </g>
    </g>
</svg>
